<svg width="22" height="18" viewBox="0 0 22 18" fill="none" xmlns="http://www.w3.org/2000/svg">
<path d="M0.0195312 17.8721V13.0186C0.0195312 11.5602 0.281576 10.0563 0.805664 8.50684C1.35254 6.93457 2.0931 5.45345 3.02734 4.06348C3.96159 2.65072 4.99837 1.45443 6.1377 0.474609L10.4785 3.07227C9.61263 4.48503 8.88346 5.97754 8.29102 7.5498C7.69857 9.12207 7.40234 10.9336 7.40234 12.9844V17.8721H0.0195312ZM11.4355 17.8721V13.0186C11.4355 11.5602 11.6976 10.0563 12.2217 8.50684C12.7686 6.93457 13.5091 5.45345 14.4434 4.06348C15.3776 2.65072 16.4144 1.45443 17.5537 0.474609L21.8945 3.07227C21.0286 4.48503 20.2995 5.97754 19.707 7.5498C19.1146 9.12207 18.8184 10.9336 18.8184 12.9844V17.8721H11.4355Z" fill="white"/>
</svg>
