<svg width="22" height="18" viewBox="0 0 22 18" fill="none" xmlns="http://www.w3.org/2000/svg">
<path d="M21.9805 0.127929L21.9805 4.98144C21.9805 6.43978 21.7184 7.94368 21.1943 9.49316C20.6475 11.0654 19.9069 12.5465 18.9727 13.9365C18.0384 15.3493 17.0016 16.5456 15.8623 17.5254L11.5215 14.9277C12.3874 13.515 13.1165 12.0225 13.709 10.4502C14.3014 8.87793 14.5977 7.06641 14.5977 5.01562L14.5977 0.127929L21.9805 0.127929ZM10.5645 0.127928L10.5645 4.98144C10.5645 6.43978 10.3024 7.94368 9.77832 9.49316C9.23145 11.0654 8.49089 12.5465 7.55664 13.9365C6.6224 15.3493 5.58561 16.5456 4.44629 17.5254L0.105469 14.9277C0.971355 13.515 1.70052 12.0225 2.29297 10.4502C2.88542 8.87793 3.18164 7.0664 3.18164 5.01562L3.18164 0.127928L10.5645 0.127928Z" fill="white"/>
</svg>
