<svg width="40" height="40" viewBox="0 0 40 40" fill="none" xmlns="http://www.w3.org/2000/svg">
<g clip-path="url(#clip0_95_33)">
<path d="M13.5324 7.55264C13.5324 7.87622 13.7947 8.13856 14.1183 8.13856C14.4419 8.13856 14.7042 7.87622 14.7042 7.55264C14.7042 7.28273 14.9238 7.0632 15.1937 7.0632C15.4636 7.0632 15.6831 7.2828 15.6831 7.55264C15.6831 7.87622 15.9455 8.13856 16.269 8.13856C16.5926 8.13856 16.855 7.87622 16.855 7.55264C16.855 6.63665 16.1097 5.89136 15.1937 5.89136C14.2777 5.89136 13.5324 6.63657 13.5324 7.55264ZM23.145 7.55264C23.145 7.87622 23.4073 8.13856 23.7309 8.13856C24.0545 8.13856 24.3168 7.87622 24.3168 7.55264C24.3168 7.28273 24.5364 7.0632 24.8063 7.0632C25.0761 7.0632 25.2957 7.2828 25.2957 7.55264C25.2957 7.87622 25.558 8.13856 25.8816 8.13856C26.2052 8.13856 26.4675 7.87622 26.4675 7.55264C26.4675 6.63665 25.7223 5.89136 24.8063 5.89136C23.8903 5.89136 23.145 6.63657 23.145 7.55264ZM20.699 8.42449C20.5225 8.62706 20.2677 8.74323 20 8.74323C19.7324 8.74323 19.4775 8.62706 19.3011 8.42449C19.0884 8.18051 18.7183 8.1552 18.4744 8.36769C18.2304 8.58034 18.205 8.95041 18.4176 9.19439C18.8167 9.65234 19.3935 9.91499 19.9999 9.91499C20.6065 9.91499 21.1832 9.65234 21.5823 9.19439C21.7949 8.95041 21.7695 8.58034 21.5255 8.36769C21.2816 8.1552 20.9115 8.18051 20.699 8.42449ZM14.2612 24.7454C12.791 24.3756 11.8735 22.8289 11.8357 21.5472C11.8262 21.2238 11.5579 20.9678 11.2329 20.9788C10.9094 20.9883 10.6549 21.2582 10.6644 21.5817C10.7143 23.2751 11.8916 25.3577 13.9754 25.8818C14.2907 25.961 14.6079 25.7692 14.6866 25.4565C14.7655 25.1427 14.575 24.8244 14.2612 24.7454ZM12.2436 28.7998C12.0148 29.0286 12.0148 29.3996 12.2436 29.6284C13.148 30.5328 14.2975 30.9072 15.7066 30.5921C16.0224 30.5215 16.2211 30.2082 16.1505 29.8923C16.0798 29.5766 15.7666 29.3778 15.4508 29.4484C14.1837 29.7319 13.4864 29.214 13.0722 28.7998C12.8434 28.571 12.4724 28.571 12.2436 28.7998ZM38.4983 12.5631C35.2623 11.7026 33.9151 9.05603 32.7266 6.72102C32.5835 6.43978 32.4482 6.17425 32.3093 5.91019C32.1586 5.62379 31.8043 5.51372 31.518 5.66442C31.2316 5.81512 31.1216 6.1694 31.2722 6.45572C32.6484 9.0715 34.0691 12.598 38.1971 13.6956C38.9154 13.8866 39.0631 14.8535 38.4224 15.2526C35.9258 16.8081 33.0618 17.6752 30.1468 17.517C26.284 17.3071 23.0526 15.3466 20.4241 12.5885C20.1938 12.3467 19.8069 12.3459 19.5758 12.5885C16.9481 15.3458 13.7161 17.3071 9.85306 17.517C6.96128 17.6742 4.0952 16.8213 1.57754 15.2527C0.942483 14.857 1.07771 13.8885 1.80285 13.6957C7.27463 12.2407 8.01781 6.48072 10.0864 4.41203C12.3178 2.18054 15.9735 1.89133 18.535 4.02798C19.3839 4.73609 20.6162 4.73609 21.465 4.02798C23.8867 2.00789 27.4568 2.07726 29.7953 4.2968C30.03 4.51953 30.4009 4.51 30.6237 4.27516C30.8465 4.04048 30.8367 3.66964 30.602 3.44683C27.9548 0.93433 23.709 0.630121 20.7143 3.12809C20.3003 3.47339 19.6996 3.47339 19.2856 3.12809C16.2472 0.59356 11.9069 0.93394 9.25777 3.58339C6.95097 5.89019 6.40372 11.2596 1.50168 12.5631C-0.209981 13.0183 -0.549658 15.3079 0.957873 16.2472C1.9694 16.8774 3.29327 17.5576 4.85994 18.0429C3.64193 22.2143 3.58896 27.7843 6.95448 31.5647C7.44236 32.1127 7.96492 32.5819 8.50787 32.9593C8.77411 33.1443 9.1391 33.0778 9.32339 32.8126C9.50808 32.5469 9.44237 32.1817 9.17676 31.997C8.70951 31.6723 8.25632 31.2646 7.82977 30.7855C4.7751 27.3542 4.85588 22.2118 5.99201 18.3469C8.44866 18.9053 10.9302 18.8148 13.272 18.0788C14.3132 19.5565 16.4125 21.6274 19.9999 21.6274C23.5874 21.6274 25.6866 19.5565 26.7279 18.0788C29.0622 18.8124 31.5436 18.9073 34.0079 18.347C35.1441 22.2119 35.2249 27.3542 32.1701 30.7856C30.5346 32.6228 28.58 33.3328 26.3602 32.8964C26.0961 32.8441 25.8299 32.9794 25.7161 33.2237C24.0111 36.8815 21.4029 37.4277 19.9999 37.4277C18.5969 37.4277 15.9888 36.8816 14.2838 33.2237C14.1699 32.9794 13.904 32.844 13.6396 32.8964C12.9176 33.0384 12.2156 33.06 11.5531 32.9605C11.2334 32.9125 10.9347 33.1329 10.8866 33.4529C10.8386 33.7729 11.059 34.0713 11.379 34.1194C12.0353 34.2179 12.7194 34.2184 13.4182 34.1213C14.7667 36.7545 17.0307 38.5996 19.9998 38.5996C22.9643 38.5996 25.2302 36.7598 26.5814 34.1212C29.0238 34.4587 31.2507 33.5807 33.0452 31.5648C36.4107 27.7844 36.3577 22.2145 35.1399 18.0432C36.7065 17.5579 38.0304 16.8775 39.0419 16.2473C40.551 15.307 40.2081 13.0179 38.4983 12.5631ZM20 20.4556C17.1336 20.4556 15.3711 18.9031 14.4195 17.6613C16.3847 16.8506 18.2505 15.5715 20 13.8304C21.7496 15.5715 23.6153 16.8505 25.5805 17.6613C24.6289 18.9031 22.8664 20.4556 20 20.4556ZM24.5492 29.4485C24.2336 29.3781 23.9201 29.5766 23.8494 29.8924C23.7788 30.2083 23.9775 30.5215 24.2933 30.5922C25.647 30.8948 26.8125 30.5723 27.7563 29.6284C27.9852 29.3996 27.9852 29.0286 27.7563 28.7999C27.5275 28.571 27.1565 28.571 26.9277 28.7999C26.5135 29.2141 25.8162 29.7321 24.5492 29.4485ZM11.5473 12.4817C10.1401 13.6214 8.46686 14.1067 6.95636 13.8136C6.63895 13.7519 6.33122 13.9595 6.2695 14.2771C6.20787 14.5948 6.41536 14.9023 6.73301 14.964C8.70021 15.3459 10.7164 14.6626 12.2847 13.3924C12.5362 13.1888 12.5749 12.8197 12.3713 12.5683C12.1677 12.3168 11.7987 12.278 11.5473 12.4817ZM27.6286 12.5683C27.4249 12.8197 27.4637 13.1887 27.7152 13.3923C29.2862 14.6647 31.3029 15.3454 33.2669 14.9639C33.5846 14.9023 33.7922 14.5947 33.7304 14.277C33.6688 13.9594 33.3612 13.7516 33.0436 13.8135C31.5332 14.1067 29.8599 13.6213 28.4526 12.4816C28.2011 12.278 27.8322 12.3168 27.6286 12.5683ZM26.0246 25.8818C28.1084 25.3578 29.2857 23.2751 29.3356 21.5817C29.3451 21.2581 29.0906 20.9882 28.7672 20.9788C28.4408 20.9685 28.1738 21.2238 28.1643 21.5472C28.1266 22.829 27.209 24.3756 25.7388 24.7454C25.425 24.8243 25.2345 25.1427 25.3135 25.4565C25.3921 25.7693 25.7095 25.961 26.0246 25.8818Z" fill="#970808"/>
</g>
<defs>
<clipPath id="clip0_95_33">
<rect width="40" height="40" fill="white"/>
</clipPath>
</defs>
</svg>
