<svg width="42" height="40" viewBox="0 0 42 40" fill="none" xmlns="http://www.w3.org/2000/svg">
<path d="M39.3864 6.85483C39.1564 6.62484 37.6168 5.08527 37.4078 4.87629C36.8266 4.29497 35.8853 4.29466 35.3039 4.87629L34.4071 5.77298C34.1782 6.00181 34.1782 6.37281 34.4071 6.60163C34.6359 6.83038 35.0069 6.83046 35.2356 6.60171L36.1325 5.70486C36.256 5.5815 36.4556 5.58143 36.5791 5.70494L37.7488 6.87467L26.403 18.2204L25.641 17.4584C25.2931 17.1104 25.2931 16.5443 25.641 16.1963L33.2561 8.58119C33.485 8.35237 33.485 7.98137 33.2561 7.75262C33.0272 7.5238 32.6563 7.5238 32.4274 7.75262L24.8123 15.3677C24.0075 16.1726 24.0075 17.4821 24.8123 18.287L25.5086 18.9834L23.1223 20.7553C22.4688 20.6191 22.5459 20.7032 16.4793 20.6777C15.1261 20.6777 13.7659 20.5504 12.4362 20.2993L6.71346 19.2187C3.57565 18.6259 0.666656 21.0317 0.666656 24.2306C0.666656 26.468 2.1624 28.4778 4.30414 29.1181C4.61406 29.2107 4.94061 29.0346 5.03334 28.7246C5.12607 28.4145 4.94991 28.088 4.63984 27.9954C2.99043 27.5022 1.8385 25.9541 1.8385 24.2306C1.8385 21.7712 4.07446 19.9129 6.4962 20.3701L12.2189 21.4507C13.6201 21.7153 15.0535 21.8495 16.4795 21.8495H22.3688C23.756 21.8495 24.8846 22.978 24.8846 24.3652V25.6436C24.8846 27.0307 23.756 28.1593 22.3688 28.1593H7.2204C6.89673 28.1593 6.63447 28.4216 6.63447 28.7452C6.63447 29.0688 6.89673 29.3311 7.2204 29.3311H14.9075C14.4275 30.1773 14.6126 31.1427 15.2146 31.7447L16.227 32.7571C17.1555 33.6858 18.7137 33.4751 19.3613 32.3309C19.9639 31.2666 20.6771 30.2592 21.4811 29.3311H22.3688C24.4021 29.3311 26.0564 27.6768 26.0564 25.6435V25.3834C27.63 24.169 29.2394 23.1786 31.3022 21.1159L39.3863 13.0317C41.0933 11.3249 41.0935 8.56198 39.3864 6.85483ZM18.3415 31.7537C18.0763 32.2225 17.437 32.3101 17.0555 31.9286L16.0432 30.9163C15.7849 30.6581 15.7303 30.2558 15.9103 29.9381C16.0222 29.7403 16.1407 29.5396 16.268 29.3312H19.9639C19.364 30.0987 18.8197 30.9091 18.3415 31.7537ZM38.5577 12.2031L30.4736 20.2873C28.5636 22.1971 27.0426 23.1572 26.0315 23.9425C25.9038 22.8288 25.2781 21.8648 24.3832 21.2787C26.9161 19.3971 26.7727 19.508 26.8174 19.4633L38.5774 7.70325C39.8057 8.95251 39.8012 10.9597 38.5577 12.2031ZM22.4583 25.0044C22.4583 23.9542 21.6039 23.0998 20.5537 23.0998C19.5036 23.0998 18.6492 23.9542 18.6492 25.0044C18.6492 26.0545 19.5035 26.9089 20.5537 26.9089C21.6039 26.9089 22.4583 26.0545 22.4583 25.0044ZM19.8211 25.0044C19.8211 24.6004 20.1498 24.2717 20.5538 24.2717C20.9579 24.2717 21.2865 24.6003 21.2865 25.0044C21.2865 25.4083 20.9579 25.7371 20.5538 25.7371C20.1498 25.7371 19.8211 25.4083 19.8211 25.0044Z" fill="#970808"/>
</svg>
