<svg width="40" height="40" viewBox="0 0 40 40" fill="none" xmlns="http://www.w3.org/2000/svg">
<path d="M22.8147 21.2527C22.8147 20.928 22.5514 20.6647 22.2266 20.6647C21.9019 20.6647 21.6386 20.928 21.6386 21.2527C21.6386 21.5775 21.9019 21.8408 22.2266 21.8408C22.5514 21.8408 22.8147 21.5775 22.8147 21.2527ZM28.7397 36.4491C30.9187 36.4491 32.6915 34.4838 32.6915 32.0683C32.6915 29.6527 30.9187 27.6875 28.7397 27.6875C26.5606 27.6875 24.7878 29.6527 24.7878 32.0683C24.7878 34.4839 26.5606 36.4491 28.7397 36.4491ZM28.7397 28.8595C30.2726 28.8595 31.5196 30.299 31.5196 32.0684C31.5196 33.8377 30.2725 35.2773 28.7397 35.2773C27.2068 35.2773 25.9597 33.8377 25.9597 32.0684C25.9597 30.299 27.2068 28.8595 28.7397 28.8595ZM13.071 21.1974C11.5302 19.6566 8.88702 19.7927 7.17897 21.5007C5.47092 23.2088 5.33491 25.8519 6.87569 27.3927C8.451 28.9681 11.0985 28.7586 12.7677 27.0895C14.4758 25.3814 14.6118 22.7382 13.071 21.1974ZM7.70428 26.5641C6.62046 25.4802 6.75647 23.5805 8.00757 22.3294C9.17624 21.1608 11.0903 20.8741 12.2423 22.0261C13.3729 23.1567 13.1351 25.0647 11.939 26.2609C10.6879 27.512 8.78827 27.648 7.70428 26.5641ZM37.2562 6.22648C36.6959 5.66609 35.613 5.88125 33.6355 6.94578C33.3505 7.09922 33.2439 7.45453 33.3973 7.73945C33.5506 8.02437 33.9059 8.13086 34.1909 7.97766C35.5593 7.24094 36.1594 7.11312 36.3837 7.09773C36.3735 7.23406 36.3204 7.50961 36.1124 8.0118C31.7069 10.663 26.1049 15.8559 21.7687 17.8172C22.919 15.9971 27.9618 11.916 31.8146 9.4068C32.0858 9.23016 32.1624 8.86719 31.9858 8.59602C31.8091 8.32492 31.4462 8.2482 31.175 8.42484C29.5254 9.49922 27.6715 10.8477 25.9762 12.2017C25.6836 9.58758 25.2255 6.85812 24.7146 4.7175C23.7226 0.560469 22.899 0 22.2242 0C21.8816 0 21.5652 0.179844 21.2837 0.534453C19.3827 2.92984 17.6298 16.4127 18.3633 19.5573C18.4008 19.7184 18.4412 19.8785 18.484 20.037C18.0246 20.1884 17.4797 20.225 16.819 20.1227C16.7108 20.106 16.6176 20.0439 16.5635 19.9524C14.2236 15.9993 8.54366 15.682 4.95194 19.2737C1.94311 22.2825 1.51053 27.0495 4.36483 29.9037C5.19835 30.7371 6.25639 31.3301 7.42483 31.6184C7.73811 31.6957 8.05639 31.5048 8.13413 31.1898C8.21163 30.8756 8.01983 30.5581 7.70561 30.4805C3.29178 29.3915 2.15038 23.7325 5.78061 20.1023C8.85155 17.0314 13.6187 17.2783 15.5551 20.5494C15.7885 20.9436 16.1839 21.2102 16.6398 21.2808C18.5894 21.5827 19.9722 20.9811 20.9887 19.3789C25.1577 18.0237 30.5198 13.2071 35.0105 10.1214C32.5354 14.2775 27.4365 20.6103 25.5386 21.7905C22.5983 23.6186 19.9901 23.653 17.7758 23.5413C17.0263 23.5037 16.3456 24.0322 16.1954 24.7711C15.6106 27.6471 13.1862 30.0449 10.2601 30.5545C9.94132 30.61 9.72788 30.9135 9.78342 31.2323C9.83858 31.549 10.1401 31.7648 10.4612 31.7091C13.8719 31.115 16.6648 28.344 17.3437 25.0046C17.3795 24.8287 17.5398 24.7029 17.7169 24.7118C18.6813 24.7602 19.7158 24.7825 20.8185 24.6605C21.5327 25.5521 22.3008 26.2829 22.9697 26.8875C23.1012 27.0064 23.1256 27.2088 23.0265 27.3584C22.1184 28.7302 21.6384 30.3588 21.6384 32.0684C21.6384 36.4419 24.8241 40 28.7398 40C32.6555 40 35.8412 36.4419 35.8412 32.0684C35.8412 26.9649 31.5794 23.2026 27.1507 24.3377C27.0477 24.364 26.9379 24.3421 26.8495 24.2774C26.3195 23.8895 25.9498 23.4819 25.7288 23.0409C25.871 22.9592 26.0137 22.875 26.1575 22.7856C28.8875 21.0881 37.1933 10.3126 37.5435 7.26937C37.5951 6.81953 37.4985 6.46875 37.2562 6.22648ZM22.2254 1.23258C22.4265 1.46164 22.9698 2.32422 23.6683 5.3907C24.1774 7.62531 24.6299 10.4792 24.8913 13.0874C24.4835 13.428 24.0909 13.7652 23.7196 14.0946C23.0135 10.0579 22.6198 5.48758 21.7705 2.07117C21.9789 1.56836 22.1362 1.33602 22.2254 1.23258ZM20.6855 17.3448C20.5929 17.5077 20.2462 18.6359 19.5252 19.3766C19.5183 19.3481 19.5112 19.3197 19.5044 19.2911C18.9999 17.1277 19.8602 9.06711 21.058 4.34219C21.6635 7.60695 22.0394 11.5273 22.6997 15.0316C21.7448 15.9442 21.0229 16.7527 20.6855 17.3448ZM26.1573 25.2231C26.5296 25.4955 26.9976 25.5865 27.4415 25.4728C31.139 24.5252 34.6693 27.7419 34.6693 32.0683C34.6693 35.7956 32.0093 38.828 28.7398 38.828C25.4701 38.828 22.8102 35.7956 22.8102 32.0683C22.8102 30.5895 23.2229 29.1845 24.0037 28.0053C24.4198 27.3767 24.3132 26.5224 23.7556 26.0182C23.2577 25.568 22.7029 25.0443 22.1658 24.4391C22.9737 24.2605 23.8148 23.9884 24.6882 23.5825C24.9924 24.1845 25.4775 24.7255 26.1573 25.2231Z" fill="#970808"/>
</svg>
