<svg width="40" height="56" viewBox="0 0 40 56" fill="none" xmlns="http://www.w3.org/2000/svg">
<g clip-path="url(#clip0_95_39)">
<path d="M27.3383 21.3128V19.4484C27.3383 17.0361 25.9339 15.0736 24.2078 15.0736H23.8448V10.7901C23.8448 8.93577 22.7653 7.427 21.4384 7.427H19.0219C17.695 7.427 16.6154 8.93566 16.6154 10.7901V15.0735H16.2524C14.5263 15.0735 13.122 17.0361 13.122 19.4483V21.3127C11.8687 22.1455 11 23.9318 11 25.9969V50.9815C11 53.0004 11.9052 54.8451 13.2527 55.5718C13.5546 55.7348 13.8938 55.5245 14.0102 55.1026C14.1267 54.6808 13.9764 54.2067 13.6745 54.0439C12.7757 53.5591 12.1719 52.3285 12.1719 50.9815V47.4692H16.998C18.1541 50.1016 20.4366 51.8033 23.8128 51.1647C23.8128 51.1646 23.8128 51.1646 23.8128 51.1646C24.6059 51.0144 24.9463 49.6665 24.3902 48.8641C24.1427 48.5069 23.9128 48.033 23.7109 47.4693H28.2884V50.9816C28.2884 52.7908 27.2351 54.2628 25.9405 54.2628H16.251C15.9273 54.2628 15.6651 54.6293 15.6651 55.0817C15.6651 55.534 15.9273 55.9005 16.251 55.9005H25.9405C27.8813 55.9005 29.4602 53.6939 29.4602 50.9816V25.9969C29.4602 23.9319 28.5916 22.1456 27.3383 21.3128ZM17.7873 10.7901C17.7873 9.83869 18.3411 9.06471 19.0219 9.06471H21.4384C22.1191 9.06471 22.673 9.83869 22.673 10.7901V11.2503H21.6805C21.3569 11.2503 21.0946 11.6168 21.0946 12.0691C21.0946 12.5215 21.3569 12.888 21.6805 12.888H22.673V15.0736H17.7873V10.7901H17.7873ZM14.2938 19.4484C14.2938 17.9391 15.1724 16.7113 16.2524 16.7113C16.5005 16.7113 23.948 16.7115 24.2078 16.7113C25.2878 16.7113 26.1664 17.9391 26.1664 19.4484V20.8465C26.0299 20.8251 25.8914 20.8131 25.7509 20.8131C14.1712 20.8253 14.6938 20.7838 14.2938 20.8465V19.4484ZM21.5898 22.4508V27.3555C21.5898 27.9612 21.2372 28.4541 20.8038 28.4541H19.6563C19.2229 28.4541 18.8703 27.9612 18.8703 27.3555V22.4508H21.5898ZM18.1505 46.9395C17.2048 45.0759 17.0122 42.4343 17.6551 40.407C18.0866 41.6024 18.6695 42.7084 19.2745 43.4734C19.6114 43.8999 20.1541 43.6486 20.2424 43.0252C20.3849 42.019 20.9482 40.2333 21.905 39.1626C21.4734 42.5841 21.8085 47.0542 23.2929 49.6008C21.0013 49.9132 19.1845 48.9772 18.1505 46.9395ZM28.2884 45.8315H23.2596C22.8445 43.8365 22.7302 41.2826 23.1624 38.746C23.3527 37.6295 22.5057 36.7563 21.7995 37.2974C20.6366 38.1874 19.8451 39.8519 19.4184 41.2721C19.119 40.7272 18.8441 40.0986 18.6217 39.4413C18.2434 38.3238 17.1074 38.2857 16.7035 39.3917C16.0053 41.3047 15.937 43.7213 16.4505 45.8314H12.1718V25.9969C12.1718 24.0415 13.3101 22.4507 14.7092 22.4507H17.6985V27.3554C17.6985 28.8642 18.5768 30.0917 19.6564 30.0917H20.8038C21.8834 30.0917 22.7617 28.8643 22.7617 27.3554V22.4508H25.751C27.1502 22.4508 28.2885 24.0415 28.2885 25.997V45.8315H28.2884ZM38.6435 7.30832C38.5623 7.22502 38.5222 7.07402 38.5412 6.92379C38.6516 6.05679 38.622 5.18673 38.4534 4.33763C38.367 3.902 38.0442 3.6463 37.7322 3.7676C37.4204 3.88846 37.2377 4.33971 37.3243 4.77556C37.4456 5.38664 37.4669 6.01301 37.3875 6.63719C37.2909 7.39752 37.5119 8.17915 37.9502 8.62864C39.6122 10.3331 39.6136 13.8036 37.9503 15.5095C37.5116 15.9593 37.2908 16.7411 37.3877 17.501C37.7162 20.0836 36.2832 22.5005 34.3793 22.5005C32.2834 22.5005 30.8442 19.634 31.4709 16.9343C31.6327 16.2381 31.4135 15.4737 30.9497 15.1167C26.8026 11.9257 27.0477 12.1393 27.0477 12.0691C27.0477 12.0239 27.0669 12.0092 27.076 12.0022L30.9497 9.02137C31.4134 8.66456 31.6326 7.9003 31.471 7.20395C30.8447 4.50479 32.2827 1.63771 34.3793 1.63771C34.9123 1.63771 35.4133 1.81862 35.8684 2.17553C36.1506 2.39695 36.5077 2.25654 36.6661 1.86207C36.8244 1.46771 36.724 0.96854 36.4418 0.747231C35.8184 0.258321 35.1052 0 34.3793 0C31.4973 0 29.5212 3.91063 30.337 7.62342L26.5109 10.5676C25.6654 11.2182 25.6653 12.9201 26.5109 13.5708L30.3369 16.5149C29.5224 20.2207 31.4923 24.1383 34.3793 24.1383C37.0305 24.1383 38.9945 20.7745 38.5413 17.2142C38.5222 17.064 38.5623 16.9133 38.6436 16.83C39.7252 15.7206 40.3709 13.9408 40.3709 12.0691C40.371 10.1973 39.7252 8.41771 38.6435 7.30832ZM21.648 33.3159C21.404 33.0187 21.0339 33.0542 20.8213 33.3954C20.672 33.6348 20.4565 33.7721 20.2301 33.7721C20.0038 33.7721 19.7882 33.6348 19.6389 33.3954C19.4263 33.0543 19.0562 33.0188 18.8123 33.3159C18.5683 33.613 18.5428 34.1303 18.7554 34.4711C19.1273 35.0677 19.6648 35.4099 20.2301 35.4099C20.7954 35.4099 21.3329 35.0677 21.7048 34.4711C21.9175 34.1302 21.892 33.6129 21.648 33.3159ZM24.1481 32.0935C23.8245 32.0935 23.5622 32.46 23.5622 32.9124V33.9645C23.5622 34.4169 23.8245 34.7834 24.1481 34.7834C24.4718 34.7834 24.7341 34.4169 24.7341 33.9645V32.9124C24.7341 32.4601 24.4718 32.0935 24.1481 32.0935ZM16.312 32.0935C15.9884 32.0935 15.7261 32.46 15.7261 32.9124V33.9645C15.7261 34.4169 15.9884 34.7834 16.312 34.7834C16.6357 34.7834 16.898 34.4169 16.898 33.9645V32.9124C16.898 32.4601 16.6357 32.0935 16.312 32.0935Z" fill="#970808"/>
</g>
<defs>
<clipPath id="clip0_95_39">
<rect width="40" height="55.9004" fill="white"/>
</clipPath>
</defs>
</svg>
