<svg width="40" height="40" viewBox="0 0 40 40" fill="none" xmlns="http://www.w3.org/2000/svg">
<path d="M21.1335 10.4049C21.3624 10.6338 21.7333 10.6338 21.9621 10.4049C22.191 10.1761 22.191 9.80512 21.9621 9.57638C21.1922 8.8064 19.9393 8.80647 19.1694 9.57638C18.3995 10.3464 18.3995 11.5991 19.1694 12.369C19.3982 12.5979 19.7692 12.5979 19.998 12.369C20.2269 12.1402 20.2269 11.7692 19.998 11.5404C19.685 11.2273 19.685 10.718 19.998 10.4049C20.3112 10.0919 20.8205 10.0919 21.1335 10.4049ZM14.6074 16.4236C14.2848 16.4007 14.0049 16.6452 13.9827 16.9681C13.9606 17.2909 14.2043 17.5705 14.5272 17.5927C15.3568 17.6497 16.1706 17.3462 16.7592 16.7576C17.347 16.1698 17.6514 15.3562 17.5944 14.5255C17.5722 14.2027 17.2919 13.9595 16.9697 13.9811C16.6469 14.0033 16.4031 14.283 16.4252 14.6058C16.4591 15.0985 16.2788 15.5807 15.9306 15.9289C15.5824 16.2771 15.1003 16.4574 14.6074 16.4236ZM3.42349 30.4378C0.422092 27.4364 0.421545 22.578 3.42349 19.576L19.5777 3.42186C21.8874 1.11207 25.4138 0.51506 28.3527 1.93611C28.6439 2.07697 28.9944 1.95494 29.1352 1.6637C29.2761 1.37238 29.1541 1.02208 28.8628 0.881144C25.4753 -0.756859 21.411 -0.0687526 18.7491 2.59321L2.59484 18.7475C-0.864592 22.2068 -0.865061 27.8064 2.59484 31.2664L5.8328 34.5044C6.06163 34.7332 6.43263 34.7332 6.66137 34.5044C6.8902 34.2755 6.8902 33.9045 6.66137 33.6758L3.42349 30.4378ZM25.7903 5.10697L24.2819 6.61536C24.0531 6.84418 24.0531 7.21519 24.2819 7.44393C24.5108 7.67276 24.8817 7.67276 25.1106 7.44393L26.619 5.93554C26.8479 5.70672 26.8479 5.33571 26.619 5.10689C26.3901 4.87814 26.0191 4.87814 25.7903 5.10697ZM9.8998 19.1624C9.67098 19.3913 9.67098 19.7623 9.8998 19.991L10.7472 20.8384C10.976 21.0672 11.347 21.0672 11.5758 20.8384C11.8046 20.6096 11.8046 20.2386 11.5758 20.0098L10.7284 19.1624C10.4996 18.9336 10.1286 18.9336 9.8998 19.1624ZM39.1984 10.5235L31.268 2.59321C31.0391 2.36438 30.6682 2.36438 30.4394 2.59321C30.2106 2.82203 30.2106 3.19303 30.4394 3.42178L38.3697 11.3521C38.9814 11.9637 38.9814 12.9589 38.3697 13.5706C37.7568 14.1837 36.7644 14.1837 36.1513 13.5706L32.9529 10.3724C32.3327 9.75207 31.3234 9.75215 30.7029 10.3724L28.9721 12.1033C28.3518 12.7236 28.3519 13.7329 28.9721 14.3532L32.1704 17.5515C32.782 18.1632 32.782 19.1584 32.1704 19.77C31.5587 20.3817 30.5635 20.3816 29.9519 19.7701L26.7536 16.5718C26.1319 15.9501 25.1254 15.95 24.5035 16.5718L22.7727 18.3026C22.1526 18.9229 22.1526 19.9322 22.7727 20.5526L25.971 23.7508C26.5842 24.3642 26.5841 25.3562 25.9709 25.9694C25.3594 26.581 24.3641 26.581 23.7525 25.9694L20.5541 22.7711C19.9323 22.1493 18.926 22.1492 18.3042 22.7711L16.5734 24.5019C15.9517 25.1236 15.9514 26.1301 16.5734 26.7518L19.7716 29.9501C20.3848 30.5633 20.3848 31.5555 19.7716 32.1686C19.1599 32.7803 18.1647 32.7803 17.553 32.1686L14.3548 28.9704C13.7329 28.3485 12.7266 28.3485 12.1047 28.9704L10.3739 30.7012C9.75223 31.3228 9.75207 32.3293 10.3739 32.9511L13.5722 36.1494C14.1838 36.7611 14.1838 37.7563 13.5722 38.3679C12.9591 38.981 11.9669 38.981 11.3537 38.3679L8.58976 35.604C8.36094 35.3752 7.98993 35.3752 7.76119 35.604C7.53237 35.8328 7.53237 36.2039 7.76119 36.4327L10.5251 39.1966C11.596 40.2676 13.3296 40.2677 14.4009 39.1966C15.4693 38.128 15.4693 36.3893 14.4009 35.3208L11.2026 32.1226C11.0388 31.9588 11.0388 31.6937 11.2026 31.5299L12.9334 29.7991C13.0973 29.6353 13.3623 29.6352 13.5261 29.7991L16.7244 32.9974C17.793 34.0659 19.5316 34.0659 20.6001 32.9974C21.6712 31.9264 21.6714 30.1928 20.6001 29.1216L17.4019 25.9233C17.238 25.7595 17.238 25.4945 17.4019 25.3306L19.1327 23.5997C19.2965 23.4359 19.5616 23.4359 19.7254 23.5997L22.9237 26.798C23.9922 27.8666 25.7309 27.8665 26.7993 26.798C27.8705 25.7271 27.8707 23.9934 26.7994 22.9223L23.6011 19.7241C23.4377 19.5606 23.4377 19.2947 23.6011 19.1313L25.332 17.4005C25.4955 17.2367 25.7609 17.2366 25.9247 17.4005L29.1229 20.5987C30.1915 21.6673 31.9301 21.6672 32.9988 20.5987C34.0673 19.5302 34.0673 17.7915 32.9988 16.7229L29.8005 13.5246C29.6371 13.3612 29.6371 13.0953 29.8005 12.9319L31.5312 11.2011C31.6948 11.0377 31.9607 11.0376 32.124 11.201L35.3224 14.3993C36.3934 15.4703 38.127 15.4705 39.1981 14.3993C40.2668 13.3307 40.2668 11.592 39.1984 10.5235ZM7.44565 24.2803C7.21691 24.0514 6.8459 24.0514 6.61708 24.2803L5.1086 25.7887C4.87978 26.0175 4.87978 26.3884 5.1086 26.6173C5.33735 26.8461 5.70835 26.8461 5.93718 26.6173L7.44565 25.1089C7.67447 24.8801 7.67447 24.5091 7.44565 24.2803Z" fill="#970808"/>
</svg>
