<svg width="40" height="40" viewBox="0 0 40 40" fill="none" xmlns="http://www.w3.org/2000/svg">
<g clip-path="url(#clip0_93_268)">
<path d="M5.61463 31.2067C5.38578 31.4355 5.38578 31.8066 5.61463 32.0354L7.30262 33.7234C7.53147 33.9523 7.90245 33.9523 8.1313 33.7234C8.36015 33.4946 8.36015 33.1235 8.1313 32.8946L6.44331 31.2067C6.21446 30.9778 5.84341 30.9778 5.61463 31.2067ZM8.76652 26.0645C7.52108 27.3099 7.52092 29.3258 8.76652 30.5714C10.012 31.8168 12.0279 31.817 13.2734 30.5714C14.5188 29.326 14.519 27.31 13.2734 26.0645C12.028 24.819 10.0121 24.8189 8.76652 26.0645ZM12.4447 29.7427C11.6592 30.5284 10.3809 30.5283 9.59528 29.7427C8.80965 28.9571 8.80965 27.6788 9.59528 26.8932C10.3828 26.1057 11.6573 26.1057 12.4447 26.8932C13.2321 27.6807 13.2322 28.9552 12.4447 29.7427ZM37.0079 19.0588C36.8558 18.9067 36.6979 18.7612 36.5354 18.621L37.6107 17.5457C39.0208 16.1356 39.0208 13.8411 37.6107 12.431L26.9068 1.72728C25.7315 0.551927 23.916 0.327216 22.4919 1.18059C22.2143 1.34693 22.1242 1.70681 22.2905 1.9845C22.4568 2.2621 22.8167 2.35243 23.0943 2.18592C24.0565 1.6093 25.2835 1.76151 26.0781 2.55604L26.279 2.757L22.3731 6.66295C21.4021 7.63407 21.4021 9.21407 22.3731 10.1851L28.7041 16.5161C27.6801 16.9097 26.9145 17.8451 26.7853 18.9674L18.2253 10.4072C17.2729 9.45402 17.2731 7.9037 18.226 6.95071L20.6674 4.50929C20.8963 4.28044 20.8963 3.90938 20.6674 3.68053C20.4386 3.4516 20.0675 3.45168 19.8388 3.68053L17.3973 6.12196C16.539 6.98025 16.2041 8.166 16.3907 9.28072C15.0905 9.03429 13.5927 9.77319 11.8593 11.5066C8.991 14.3749 8.47665 18.9284 6.08421 21.3209L1.35239 26.0527C-0.450839 27.8559 -0.450839 30.7899 1.35239 32.5931L6.74459 37.9853C8.36265 39.6035 10.9596 39.7874 12.785 38.4191C13.0439 38.225 13.0965 37.8577 12.9023 37.5988C12.7083 37.3399 12.341 37.2872 12.082 37.4815C10.7188 38.5034 8.78043 38.3638 7.57335 37.1567L2.18115 31.7645C0.834919 30.4183 0.834919 28.2278 2.18115 26.8815L6.91297 22.1497C9.51777 19.545 10.0246 14.999 12.6881 12.3354C15.5921 9.4316 16.717 10.5563 17.1973 11.0367C17.5113 11.3507 26.1314 19.9708 26.6265 20.4659C26.1339 23.7748 24.8107 26.6498 22.127 29.5359C20.3869 30.2959 18.5176 31.0955 17.1882 32.4249L14.5439 35.0692C14.3151 35.298 14.3151 35.6691 14.5439 35.8979C14.7728 36.1267 15.1438 36.1267 15.3727 35.8979L18.0169 33.2536C18.9368 32.3337 20.17 31.6941 21.5139 31.0875C21.6679 31.8823 22.4044 32.4433 23.2496 32.3062C26.0703 31.8484 28.3597 30.2554 29.8288 27.7654C29.629 29.1227 29.2529 30.5081 28.6925 31.953C28.1694 33.3018 29.6689 34.545 30.9027 33.7825C33.7654 32.0132 35.3452 29.0714 35.3539 25.4969C35.9155 26.3642 36.4235 27.3127 36.8833 28.3551C37.4684 29.6813 39.4067 29.498 39.7399 28.0859C40.515 24.8015 39.5448 21.5957 37.0079 19.0588ZM36.7819 13.2597C37.7351 14.213 37.7351 15.7638 36.7819 16.717L35.589 17.91C34.7843 17.3851 33.8881 16.9836 32.9251 16.7146L36.581 13.0588L36.7819 13.2597ZM35.7523 12.2301L31.8463 16.136C31.7275 16.2548 31.589 16.3465 31.435 16.4122C31.0349 16.3598 30.6267 16.3282 30.2116 16.3183C30.0001 16.1857 29.9581 16.0997 29.3744 15.5288L34.2127 10.6905L35.7523 12.2301ZM23.2018 9.35628C22.6877 8.84224 22.6877 8.00567 23.2018 7.49155L27.1078 3.5856L28.6474 5.12521L23.8091 9.96353L23.2018 9.35628ZM24.6378 10.7922L29.4761 5.95389L31.0157 7.4935L26.1774 12.3318L24.6378 10.7922ZM28.5457 14.7001L27.0061 13.1606L31.8445 8.32226L33.384 9.8618L28.5457 14.7001ZM30.2865 32.7856C30.0962 32.903 29.9419 32.8046 29.8844 32.7568C29.8283 32.7102 29.7063 32.5798 29.7851 32.3769C30.78 29.8116 31.3082 27.2167 31.1402 24.4597C31.2527 23.9586 31.3267 23.4594 31.3608 22.965C31.4089 22.2692 32.2519 21.9345 32.7672 22.4091C33.2064 22.8136 33.6278 23.2488 34.0367 23.7264C34.1329 24.2848 34.1822 24.8695 34.1822 25.4676C34.1822 28.6798 32.8351 31.2103 30.2865 32.7856ZM38.5991 27.8166C38.5477 28.0343 38.369 28.0738 38.2945 28.0806C38.2219 28.0872 38.0434 28.0813 37.9554 27.8821C36.884 25.4533 35.4826 23.3169 33.5612 21.5469C32.3257 20.4091 30.3073 21.2075 30.1916 22.8842C30.1239 23.8648 29.8782 24.8725 29.4612 25.8792C28.2319 28.8469 26.019 30.6693 23.0618 31.1493C22.8407 31.185 22.7361 31.0351 22.7012 30.9689C22.6673 30.9043 22.6044 30.7372 22.7549 30.5797C25.9002 27.2882 27.6472 23.6598 27.9419 19.1873C28.0037 18.2497 28.798 17.5032 29.7502 17.4878C32.1218 17.4496 34.4822 18.1903 36.1793 19.8874C38.4506 22.1589 39.2874 24.9008 38.5991 27.8166ZM20.976 18.3619C19.7306 17.1165 17.7146 17.1162 16.4691 18.3619L16.0252 18.8058L14.681 17.4615C14.4521 17.2326 14.0811 17.2326 13.8523 17.4615C13.6234 17.6903 13.6234 18.0614 13.8523 18.2902L15.1966 19.6345L14.7527 20.0783C13.5101 21.3209 13.5101 23.3426 14.7527 24.5852C15.9952 25.8277 18.0169 25.8278 19.2596 24.5852L19.7034 24.1413L21.0477 25.4856C21.2766 25.7145 21.6476 25.7145 21.8765 25.4856C22.1053 25.2568 22.1053 24.8857 21.8765 24.6569L20.5322 23.3126L20.9761 22.8688C22.2214 21.6234 22.2217 19.6075 20.976 18.3619ZM20.1473 22.0401L18.4308 23.7566C17.6435 24.5439 16.3689 24.5441 15.5814 23.7566C14.7958 22.971 14.7958 21.6927 15.5814 20.9072L17.2979 19.1907C18.0854 18.4032 19.3599 18.4032 20.1473 19.1907C20.9347 19.9781 20.9348 21.2526 20.1473 22.0401ZM18.0451 20.4641L16.8549 21.6543C16.6261 21.8831 16.6261 22.2542 16.8549 22.483C17.0838 22.7118 17.4548 22.7118 17.6837 22.483L18.8738 21.2928C19.1027 21.064 19.1027 20.6929 18.8738 20.4641C18.6449 20.2354 18.2738 20.2354 18.0451 20.4641Z" fill="#970808"/>
</g>
<defs>
<clipPath id="clip0_93_268">
<rect width="40" height="40" fill="white"/>
</clipPath>
</defs>
</svg>
