<svg width="248" height="70" viewBox="0 0 248 70" fill="none" xmlns="http://www.w3.org/2000/svg">
<path d="M226.027 30.5396H246.035V61.4185H226.027V30.5396Z" fill="white"/>
<path d="M234.598 33.8276C228.039 34.9096 226.094 38.6635 226.094 38.6635L226.926 45.9448C226.926 45.9448 227.676 43.2182 232.371 40.7104C237.239 38.1089 242.989 37.2768 245.547 32.7026L234.598 33.8276Z" fill="#FF4E4E"/>
<path d="M245.191 36.7774C244.578 39.6875 242.012 42.0117 239.754 43.043C235.687 44.9024 233.59 45.8907 231.703 47.1133C227.762 49.6719 227.047 52.8399 227.047 52.8399V57.3985L229.484 59.1719C229.484 59.1719 230.973 56.2774 233.234 54.1094C236.012 51.4532 237.644 50.9805 241.035 48.9453C243.555 47.4375 245.191 44.7735 245.191 44.7735V36.7774Z" fill="#006CA2"/>
<path d="M235.269 60.894C235.269 60.894 236.683 58.476 238.406 56.8666C241.711 53.7768 243.554 54.1635 245.086 49.8862V57.1127C245.086 57.1166 244.05 60.8276 235.269 60.894Z" fill="#FF4E4E"/>
<path d="M229.832 22.7925C230.738 21.6753 231.906 20.9566 233.187 20.6323C234.961 20.1831 237.097 20.1831 238.871 20.6323C240.148 20.9566 241.316 21.6753 242.215 22.7925C242.793 23.5034 243.793 24.7651 243.508 25.8237C243.359 26.3745 242.957 26.4761 242.535 26.648C241.504 27.062 240.418 27.2691 239.32 27.3628C237.078 27.5464 234.933 27.5464 232.695 27.3628C231.601 27.2691 230.515 27.0581 229.488 26.648C229.066 26.4761 228.668 26.3745 228.523 25.8237C228.238 24.7612 229.25 23.5034 229.832 22.7925ZM246.629 31.0112C245.695 31.48 244.703 31.8198 243.636 32.0269C242.179 32.312 240.691 32.4917 239.195 32.5933C237.105 32.7339 234.902 32.7378 232.777 32.5933C231.281 32.4917 229.797 32.312 228.343 32.0269C227.273 31.8198 226.289 31.48 225.359 31.0112C224.461 30.5581 224.039 29.7222 224.531 28.8511C224.883 28.23 225.519 27.7456 226.308 27.6128C226.734 27.5347 228.429 29.273 235.879 29.273C243.472 29.273 245.277 27.5347 245.711 27.6128C246.5 27.7495 247.133 28.23 247.48 28.8511C247.957 29.7222 247.531 30.5581 246.629 31.0112ZM242.258 67.0464C241.351 68.2339 240.179 69.0034 238.89 69.3472C237.105 69.8237 234.957 69.8237 233.168 69.3472C231.883 69.0034 230.703 68.2339 229.793 67.0464C229.59 66.7808 229.332 66.4331 229.093 66.0542C230.011 66.5816 231.023 66.9761 232.105 67.187C234.547 67.6636 237.484 67.6636 239.929 67.187C241.019 66.9722 242.039 66.5737 242.961 66.0347C242.726 66.4253 242.465 66.7769 242.258 67.0464ZM246.828 60.4878C246.543 61.5034 245.824 62.5308 244.937 63.0972C243.929 63.7417 242.863 64.2808 241.722 64.6206C238.093 65.7027 233.625 65.7027 230 64.6206C228.863 64.2808 227.804 63.7417 226.801 63.0972C225.918 62.5269 225.203 61.4995 224.929 60.4878C224.789 59.9722 224.761 59.398 225.004 58.8941C225.195 58.4839 225.656 57.8745 226.172 58.0464C226.465 58.1441 226.683 58.5542 226.863 58.7847C227.133 59.1323 227.437 59.4409 227.789 59.7183C228.496 60.2769 229.328 60.6753 230.191 60.9644C233.562 62.0933 238.172 62.0972 241.558 60.9644C242.426 60.6753 243.258 60.2769 243.968 59.7183C244.324 59.4409 244.629 59.1323 244.906 58.7847C245.086 58.5542 245.308 58.1441 245.601 58.0464C246.117 57.8745 246.57 58.4839 246.761 58.8941C247 59.398 246.972 59.9722 246.828 60.4878Z" fill="#78A3AD"/>
<path d="M42 2C42 0.895432 42.8954 0 44 0H81C82.1046 0 83 0.89543 83 2V59C83 60.1046 82.1046 61 81 61H44C42.8954 61 42 60.1046 42 59V2Z" fill="#FF4E4E"/>
<path d="M159 45C159 43.8954 159.895 43 161 43H217C218.105 43 219 43.8954 219 45V65C219 66.1046 218.105 67 217 67H161C159.895 67 159 66.1046 159 65V45Z" fill="#FF4E4E"/>
<path d="M40.1292 46.2821C40.1292 46.585 40.071 46.8647 39.9544 47.1211C39.8379 47.3774 39.7797 47.6571 39.7797 47.96C39.7797 48.1931 39.8263 48.4261 39.9195 48.6591C40.0127 48.8689 40.0593 49.0903 40.0593 49.3233C40.0593 49.5097 40.0243 49.8127 39.9544 50.2322C39.8845 50.6284 39.7913 51.0478 39.6748 51.4906C39.5816 51.9334 39.4767 52.3529 39.3602 52.749C39.2437 53.1219 39.1388 53.3783 39.0456 53.5181H38.0318C37.9386 54.0075 37.7755 54.5085 37.5424 55.0212C36.6569 55.4407 35.8995 55.7087 35.2703 55.8252C34.641 55.9417 33.9652 56 33.2428 56C32.9165 56 32.567 56 32.1941 56C31.8445 55.9767 31.46 55.965 31.0405 55.965C30.2715 55.965 29.5957 56 29.0131 56.0699C28.4304 56.1631 27.8012 56.4078 27.1254 56.804C26.9157 56.8972 26.6943 56.9438 26.4612 56.9438C26.0184 56.9438 25.5757 56.8972 25.1329 56.804C24.7134 56.7108 24.2939 56.6059 23.8744 56.4894C23.455 56.3729 23.0238 56.268 22.5811 56.1748C22.1616 56.0816 21.7304 56.035 21.2877 56.035C20.6584 56.035 20.0292 55.9767 19.4 55.8602C18.7708 55.7203 18.1416 55.6504 17.5124 55.6504C17.0463 55.6504 16.5918 55.697 16.1491 55.7903C15.7063 55.8602 15.2518 55.9417 14.7858 56.035C14.343 56.1515 13.9002 56.2447 13.4574 56.3146C13.0146 56.4078 12.5602 56.4544 12.0941 56.4544C11.6746 56.4544 11.2668 56.4078 10.8706 56.3146C10.4745 56.2214 10.0666 56.1748 9.64715 56.1748C8.90141 56.1748 8.15568 56.233 7.40994 56.3496C6.6875 56.4894 5.95342 56.5593 5.20768 56.5593C4.2289 56.5593 3.41325 56.3263 2.76072 55.8602C2.13151 55.3708 1.8169 54.6017 1.8169 53.553C1.8169 53.1336 1.91012 52.7607 2.09655 52.4344C2.63255 51.4557 3.1802 50.7565 3.73951 50.337C4.32211 49.8943 4.86977 49.5797 5.38246 49.3932C5.91846 49.2068 6.4195 49.0786 6.88559 49.0087C7.35168 48.9388 7.7595 48.7873 8.10907 48.5543C8.45863 48.3212 8.72663 47.925 8.91307 47.3657C9.12281 46.8064 9.22768 45.9442 9.22768 44.779C9.22768 43.404 9.11115 42.0524 8.87811 40.724C8.66837 39.3724 8.5635 37.9974 8.5635 36.5991C8.5635 35.9233 8.63342 35.2591 8.77324 34.6066C8.91307 33.9541 8.98298 33.2899 8.98298 32.6141C8.98298 31.4489 8.92472 30.307 8.8082 29.1884C8.71498 28.0465 8.66837 26.9045 8.66837 25.7626C8.66837 24.9703 8.5635 24.2012 8.35376 23.4555C8.14402 22.6865 8.03915 21.9058 8.03915 21.1134C8.03915 20.6473 8.08576 20.2045 8.17898 19.7851C8.2722 19.3423 8.31881 18.8995 8.31881 18.4567C8.31881 17.7809 8.28385 17.1051 8.21394 16.4292C8.14402 15.7534 8.08576 15.0776 8.03915 14.4018C8.01585 14.0289 7.95759 13.6677 7.86437 13.3181C7.79446 12.9452 7.66629 12.6306 7.47985 12.3743C7.29342 12.0946 7.04872 11.8732 6.74576 11.7101C6.44281 11.547 6.06994 11.4654 5.62716 11.4654C5.20768 11.4654 4.7882 11.5353 4.36872 11.6752C3.97255 11.815 3.55307 11.8849 3.11029 11.8849C2.85394 11.8849 2.60925 11.8616 2.3762 11.815C2.14316 11.7684 1.91012 11.7101 1.67707 11.6402C1.56055 11.4771 1.45568 11.2906 1.36246 11.0809C1.29255 10.8712 1.21099 10.6731 1.11777 10.4866C1.02455 10.2769 0.908029 10.1021 0.768203 9.96229C0.628378 9.79916 0.430291 9.69429 0.173943 9.64769C0.406986 9.29812 0.628377 8.84369 0.838116 8.28438C1.04786 7.72508 1.2809 7.18908 1.53725 6.67638C1.8169 6.16369 2.14316 5.72091 2.51603 5.34804C2.8889 4.97517 3.34333 4.78873 3.87933 4.78873C4.32211 4.78873 4.72994 4.8936 5.10281 5.10334C5.49898 5.31308 5.91846 5.41795 6.36124 5.41795C6.92055 5.41795 7.45655 5.30143 7.96924 5.06839C8.48194 4.83534 9.02959 4.71882 9.6122 4.71882C10.0783 4.71882 10.4978 4.88195 10.8706 5.20821C11.2901 5.09169 11.6746 5.03343 12.0242 5.03343C12.2572 5.03343 12.4786 5.06839 12.6884 5.1383C12.9214 5.20821 13.1545 5.24317 13.3875 5.24317C14.0866 5.24317 14.7625 5.14995 15.415 4.96352C16.0908 4.75378 16.7783 4.64891 17.4774 4.64891C18.0367 4.64891 18.5727 4.73047 19.0854 4.8936C19.5981 5.05673 20.0991 5.25482 20.5885 5.48786C21.0779 5.6976 21.5673 5.91899 22.0567 6.15204C22.5461 6.38508 23.0588 6.55986 23.5948 6.67638C23.6181 6.79291 23.6298 6.89778 23.6298 6.99099C23.6531 7.06091 23.6647 7.15412 23.6647 7.27064V7.41047L23.6298 7.5503C23.6064 7.99308 23.5249 8.43586 23.3851 8.87864C23.2452 9.29812 23.1404 9.7176 23.0704 10.1371C22.9539 10.6964 22.7442 11.0576 22.4412 11.2207C22.1616 11.3606 21.812 11.4305 21.3925 11.4305C21.2061 11.4305 21.008 11.4305 20.7983 11.4305C20.5885 11.4072 20.3905 11.3955 20.204 11.3955C19.3418 11.3955 18.4795 11.4654 17.6172 11.6052C16.7783 11.7218 15.951 11.9082 15.1353 12.1646C14.9023 12.6073 14.7858 13.0967 14.7858 13.6327C14.7858 14.0522 14.8324 14.4717 14.9256 14.8912C15.0188 15.3106 15.0887 15.7301 15.1353 16.1496C14.879 16.103 14.6459 16.0447 14.4362 15.9748C14.2498 15.8816 14.0284 15.835 13.772 15.835C13.5856 15.835 13.4108 15.9399 13.2477 16.1496C13.1078 16.3593 13.0379 16.5574 13.0379 16.7439C13.0379 16.907 13.0962 17.0468 13.2127 17.1633C13.3292 17.2799 13.4691 17.3731 13.6322 17.443C13.7953 17.5129 13.9701 17.5595 14.1565 17.5828C14.343 17.6061 14.4945 17.6178 14.611 17.6178L14.6459 18.3169C14.6459 19.1792 14.5411 20.0298 14.3313 20.8687C14.1449 21.6844 14.0517 22.5233 14.0517 23.3856C14.0517 23.6419 14.075 23.8983 14.1216 24.1546C14.1915 24.411 14.2265 24.6673 14.2265 24.9237C14.2265 25.2266 14.1332 25.4131 13.9468 25.483C13.7837 25.5529 13.5972 25.5878 13.3875 25.5878C13.2011 25.5878 13.0146 25.5995 12.8282 25.6228C12.6651 25.6461 12.5835 25.751 12.5835 25.9374C12.5835 26.0073 12.5952 26.0656 12.6185 26.1122C12.5252 26.2986 12.4786 26.4618 12.4786 26.6016C12.4786 26.8113 12.5602 26.9395 12.7233 26.9861C12.8865 27.0327 13.0612 27.0677 13.2477 27.091C13.4341 27.091 13.6089 27.1143 13.772 27.1609C13.9352 27.1842 14.0167 27.2774 14.0167 27.4405C14.0167 27.6969 13.9818 27.9416 13.9118 28.1746C13.8419 28.3844 13.807 28.6058 13.807 28.8388C13.807 29.468 13.9352 30.0739 14.1915 30.6565C14.4478 31.2391 14.576 31.8451 14.576 32.4743C14.576 33.0336 14.4945 33.5929 14.3313 34.1522C14.1915 34.6882 14.1216 35.2358 14.1216 35.7951C14.1216 36.1447 14.1682 36.4943 14.2614 36.8438C14.3779 37.1701 14.4945 37.508 14.611 37.8576C14.7508 38.1838 14.8673 38.5218 14.9605 38.8713C15.0771 39.1976 15.1353 39.5355 15.1353 39.8851C15.1353 40.3744 15.0538 40.8522 14.8906 41.3183C14.7275 41.7844 14.6459 42.2621 14.6459 42.7515C14.6459 42.868 14.6692 43.0428 14.7158 43.2758C14.8091 43.8118 14.8906 44.4527 14.9605 45.1984C15.0538 45.9209 15.2052 46.62 15.415 47.2958C15.6247 47.9484 15.9393 48.5077 16.3588 48.9737C16.7783 49.4398 17.3725 49.6729 18.1416 49.6729C18.864 49.6729 19.5631 49.568 20.239 49.3583C20.9148 49.1252 21.6139 49.0087 22.3364 49.0087C22.7791 49.0087 23.2103 49.067 23.6298 49.1835C24.0725 49.2767 24.5037 49.3932 24.9231 49.533C25.3426 49.6729 25.7621 49.801 26.1816 49.9176C26.6244 50.0108 27.0788 50.0574 27.5449 50.0574C28.244 50.0574 28.9315 49.9758 29.6073 49.8127C30.3064 49.6496 31.0056 49.5097 31.7047 49.3932C32.6835 49.2068 33.4176 48.8805 33.907 48.4144C34.3964 47.925 34.641 47.156 34.641 46.1073C34.641 45.0586 34.5129 44.0449 34.2565 43.0661C34.0235 42.064 33.907 41.0386 33.907 39.9899C33.907 39.3607 34.0002 38.7548 34.1866 38.1722C34.3731 37.5663 34.6644 37.0303 35.0605 36.5642C35.6198 36.3778 36.1791 36.2845 36.7384 36.2845C37.7638 36.2845 38.4863 36.6224 38.9057 37.2983C39.3252 37.9508 39.535 38.7315 39.535 39.6404C39.535 40.0365 39.4534 40.3162 39.2903 40.4793C39.1271 40.6191 39.0456 40.759 39.0456 40.8988C39.0456 40.9454 39.0922 41.0153 39.1854 41.1085C39.2786 41.1784 39.3835 41.2717 39.5 41.3882C39.6165 41.5047 39.7214 41.6445 39.8146 41.8077C39.9078 41.9708 39.9544 42.1456 39.9544 42.332C39.9544 42.4951 39.8845 42.6117 39.7447 42.6816C39.7447 42.9379 39.733 43.2525 39.7097 43.6254C39.6864 43.9983 39.6631 44.3711 39.6398 44.744C39.6398 45.1169 39.6515 45.4664 39.6748 45.7927C39.6981 46.119 39.7564 46.3637 39.8496 46.5268L40.1292 46.2821Z" fill="black"/>
<path d="M77.4628 48.6941C77.4628 49.3233 77.3579 49.8593 77.1481 50.3021C76.9617 50.7449 76.7054 51.141 76.3791 51.4906C76.0761 51.8402 75.7149 52.1664 75.2955 52.4694C74.8993 52.7724 74.4915 53.0986 74.072 53.4482C73.7457 53.7278 73.4544 53.9376 73.1981 54.0774C72.9417 54.2172 72.6854 54.3337 72.429 54.427C72.196 54.5202 71.9396 54.6134 71.66 54.7066C71.4036 54.7998 71.1007 54.928 70.7511 55.0911C70.285 55.3242 69.8889 55.5456 69.5626 55.7553C69.2596 55.9417 68.945 56.1165 68.6188 56.2797C68.3158 56.4428 67.9779 56.571 67.605 56.6642C67.2322 56.7807 66.7661 56.8739 66.2068 56.9438C65.2746 57.0603 64.3308 57.2002 63.3753 57.3633C62.4431 57.5264 61.5109 57.608 60.5788 57.608C60.3923 57.608 60.1942 57.5614 59.9845 57.4682C59.7981 57.3983 59.5767 57.3167 59.3203 57.2235C59.064 57.1536 58.7727 57.072 58.4464 56.9788C58.1435 56.9089 57.7706 56.8739 57.3278 56.8739C56.8617 56.8739 56.4889 56.804 56.2092 56.6642C55.9296 56.5243 55.6732 56.3612 55.4402 56.1748C55.2304 55.9883 55.009 55.7903 54.776 55.5805C54.543 55.3475 54.24 55.1494 53.8671 54.9863C52.4689 54.357 51.2803 53.5997 50.3016 52.7141C49.3228 51.8285 48.4838 50.8381 47.7847 49.7428C47.0856 48.6475 46.503 47.459 46.0369 46.1772C45.5708 44.8955 45.1746 43.5555 44.8483 42.1572C44.592 41.1784 44.4638 40.1997 44.4638 39.2209C44.4638 37.9391 44.7668 36.7506 45.3727 35.6553C45.1397 35.0028 45.0231 34.3736 45.0231 33.7677C45.0231 33.3249 45.1513 32.6724 45.4077 31.8101C45.664 30.9245 45.9903 30.039 46.3864 29.1534C46.8059 28.2678 47.2487 27.4755 47.7148 26.7764C48.2042 26.0539 48.6586 25.6112 49.0781 25.448C49.4043 25.3315 49.6257 25.2383 49.7423 25.1684C49.8821 25.0752 49.952 24.8421 49.952 24.4692C49.952 24.1896 50.0569 23.9565 50.2666 23.7701C50.4996 23.5837 50.7676 23.4322 51.0706 23.3157C51.3969 23.1992 51.7115 23.0943 52.0144 23.0011C52.3407 22.9079 52.6087 22.8146 52.8184 22.7214C53.6807 22.3019 54.4963 21.9524 55.2654 21.6727C56.0577 21.3698 56.8384 21.1251 57.6075 20.9386C58.3998 20.7289 59.2155 20.5774 60.0544 20.4842C60.8934 20.391 61.7906 20.3444 62.7461 20.3444C63.2588 20.3444 63.7598 20.4143 64.2492 20.5541C64.7386 20.6939 65.2047 20.8804 65.6475 21.1134C66.1135 21.3232 66.568 21.5679 67.0108 21.8475C67.4535 22.1039 67.8847 22.3602 68.3042 22.6165H68.2692C68.6188 22.6632 68.945 22.768 69.248 22.9312C69.5742 23.071 69.9122 23.1642 70.2617 23.2108C70.588 23.607 71.0075 23.9915 71.5202 24.3644C72.0562 24.7139 72.5689 25.0868 73.0582 25.483C73.5709 25.8792 74.0021 26.3103 74.3516 26.7764C74.7245 27.2192 74.9109 27.7318 74.9109 28.3145C74.9109 28.4077 74.8993 28.5009 74.876 28.5941C74.876 28.6873 74.8643 28.7922 74.841 28.9087L74.9808 28.7339C75.0741 28.8038 75.1556 28.9204 75.2255 29.0835C75.3188 29.2466 75.4003 29.4331 75.4702 29.6428C75.5402 29.8292 75.5984 30.0273 75.645 30.2371C75.6916 30.4235 75.7266 30.575 75.7499 30.6915C75.9363 30.9945 76.181 31.2391 76.484 31.4256C76.8102 31.612 77.0666 31.8684 77.253 32.1946C77.02 32.4277 76.9035 32.7306 76.9035 33.1035C76.9035 33.4997 76.985 33.8958 77.1481 34.292C77.3113 34.6649 77.3928 35.0494 77.3928 35.4456C77.3928 35.9117 77.3695 36.3661 77.3229 36.8089C77.2763 37.2284 77.253 37.6711 77.253 38.1372C77.253 38.4868 77.1132 38.7548 76.8335 38.9412C76.5772 39.1277 76.2859 39.2908 75.9596 39.4306C75.6567 39.5704 75.377 39.7103 75.1207 39.8501C74.8643 39.9899 74.7362 40.188 74.7362 40.4444C74.7362 40.6308 74.6196 40.724 74.3866 40.724C74.1769 40.7007 74.0021 40.6891 73.8622 40.6891C72.8368 40.6891 71.8115 40.5609 70.7861 40.3045C69.784 40.0482 68.7819 39.92 67.7798 39.92C66.6845 39.92 65.6009 40.0016 64.5289 40.1647C63.4569 40.3045 62.3732 40.3744 61.2779 40.3744C60.4622 40.3744 59.6466 40.3511 58.8309 40.3045C58.0386 40.2579 57.2346 40.2346 56.4189 40.2346C56.2092 40.2346 55.813 40.2812 55.2304 40.3744C54.6478 40.4444 54.0303 40.5492 53.3777 40.6891C52.7485 40.8056 52.1426 40.9571 51.56 41.1435C50.9774 41.3066 50.5696 41.4698 50.3365 41.6329C50.3132 41.7494 50.3016 41.9125 50.3016 42.1223C50.3016 43.2176 50.6162 44.3478 51.2454 45.5131C51.8979 46.6783 52.7485 47.7386 53.7972 48.6941C54.8459 49.6496 56.0228 50.4419 57.3278 51.0711C58.6329 51.7003 59.9496 52.015 61.2779 52.015C62.0469 52.015 62.8043 52.0499 63.5501 52.1198C64.3191 52.1664 65.0649 52.3296 65.7873 52.6092C66.4165 52.3063 66.9875 51.9567 67.5002 51.5605C68.0362 51.1644 68.5488 50.7449 69.0382 50.3021C69.5276 49.8593 70.0054 49.4049 70.4715 48.9388C70.9375 48.4727 71.4153 48.0066 71.9047 47.5405C71.9979 47.4473 72.2193 47.3657 72.5688 47.2958C72.9417 47.2026 73.3379 47.1327 73.7574 47.0861C74.1768 47.0162 74.573 46.9696 74.9459 46.9463C75.3421 46.8997 75.6101 46.8764 75.7499 46.8764C76.2859 46.8764 76.7869 46.9579 77.253 47.1211C77.3928 47.6571 77.4628 48.1814 77.4628 48.6941ZM72.2193 34.5018C72.2193 34.1522 72.161 33.8143 72.0445 33.488C71.928 33.1618 71.8348 32.8238 71.7648 32.4743C71.6483 31.8218 71.5901 31.1925 71.5901 30.5866C71.5901 29.9574 71.4969 29.3282 71.3104 28.699H71.2755C71.2755 28.8388 71.2289 28.9786 71.1356 29.1185C71.0424 29.235 70.9142 29.2932 70.7511 29.2932C70.4715 29.2932 70.2035 29.2233 69.9471 29.0835C69.6908 28.9437 69.4694 28.7689 69.2829 28.5592C68.3974 28.163 67.5934 27.7901 66.8709 27.4405C66.1718 27.091 65.461 26.788 64.7386 26.5317C64.0395 26.252 63.2821 26.0423 62.4664 25.9025C61.6741 25.7393 60.7536 25.6578 59.7049 25.6578C59.6116 25.6578 59.5184 25.6694 59.4252 25.6927C59.3553 25.6927 59.2854 25.7277 59.2155 25.7976L59.3902 26.1821L59.1106 26.252C58.4814 26.3685 57.957 26.4851 57.5376 26.6016C57.1414 26.6948 56.7802 26.8346 56.4539 27.0211C56.1276 27.2075 55.8014 27.4405 55.4751 27.7202C55.1722 27.9765 54.776 28.3145 54.2866 28.7339C54.0536 28.9437 53.7972 29.1068 53.5176 29.2233C53.2612 29.3165 52.9932 29.4098 52.7136 29.503C52.4572 29.5729 52.2009 29.6545 51.9445 29.7477C51.7115 29.8409 51.5134 29.9924 51.3503 30.2021C51.1871 30.7847 50.9424 31.3557 50.6162 31.915C50.3132 32.451 50.1617 33.0219 50.1617 33.6278C50.1617 33.9774 50.3016 34.292 50.5812 34.5717C50.8842 34.828 51.257 35.0494 51.6998 35.2358C52.1659 35.4223 52.667 35.5854 53.203 35.7252C53.7623 35.8651 54.3099 35.9699 54.8459 36.0398C55.3819 36.1098 55.8713 36.168 56.3141 36.2146C56.7802 36.2379 57.1414 36.2496 57.3977 36.2496C58.2833 36.2496 59.1572 36.168 60.0195 36.0049C60.8817 35.8184 61.7556 35.7252 62.6412 35.7252C63.5501 35.7252 64.4589 35.7718 65.3678 35.8651C66.2767 35.935 67.1855 35.9699 68.0944 35.9699C68.3275 35.9699 68.677 35.9583 69.1431 35.935C69.6092 35.9117 70.0636 35.8534 70.5064 35.7602C70.9725 35.6437 71.3687 35.4922 71.6949 35.3058C72.0445 35.096 72.2193 34.828 72.2193 34.5018ZM71.0308 17.408C71.0308 17.8974 70.821 18.2819 70.4015 18.5616C70.0054 18.8412 69.5742 18.9811 69.1082 18.9811C68.6887 18.9811 68.3624 18.9578 68.1294 18.9112C67.8963 18.8412 67.6982 18.7364 67.5351 18.5965C67.372 18.4567 67.2205 18.2819 67.0807 18.0722C66.9642 17.8625 66.801 17.6061 66.5913 17.3032C66.4515 17.0934 66.2068 16.8138 65.8572 16.4642C65.5076 16.1146 65.1231 15.7651 64.7036 15.4155C64.2842 15.0659 63.8647 14.7513 63.4452 14.4717C63.049 14.1687 62.7344 13.9706 62.5014 13.8774C62.3382 13.691 62.1751 13.4929 62.012 13.2832C61.8722 13.0734 61.709 12.8753 61.5226 12.6889C61.3595 12.5025 61.173 12.3393 60.9633 12.1995C60.7536 12.0597 60.5089 11.9781 60.2292 11.9548C59.8796 12.1412 59.5767 12.3743 59.3203 12.6539C59.064 12.9336 58.8309 13.2132 58.6212 13.4929C58.4348 13.7726 58.26 14.0406 58.0969 14.2969C57.9337 14.5299 57.7589 14.7047 57.5725 14.8212C57.3861 14.9378 57.2113 15.031 57.0482 15.1009C56.9083 15.1475 56.7802 15.264 56.6636 15.4505C56.617 15.8466 56.5122 16.1379 56.349 16.3244C56.1859 16.4875 55.9762 16.6972 55.7198 16.9536C55.3469 17.3265 55.1023 17.6877 54.9857 18.0372C54.8692 18.3635 54.7061 18.7247 54.4963 19.1209C54.2167 19.6336 53.8089 19.8899 53.2729 19.8899C52.6903 19.8899 52.1426 19.7152 51.6299 19.3656C51.1172 18.9927 50.8609 18.48 50.8609 17.8275C50.8609 17.1983 51.0007 16.6623 51.2803 16.2195C51.56 15.7534 51.8979 15.3223 52.2941 14.9261C52.6903 14.5299 53.0981 14.1454 53.5176 13.7726C53.937 13.3764 54.2866 12.9336 54.5663 12.4442L55.0556 11.5353C55.4984 11.2557 55.8829 10.8362 56.2092 10.2769C56.5588 9.7176 56.9083 9.1583 57.2579 8.59899C57.6075 8.03969 57.9803 7.5503 58.3765 7.13082C58.7727 6.71134 59.2504 6.5016 59.8097 6.5016C60.3224 6.5016 60.8468 6.73464 61.3828 7.20073C61.9421 7.64351 62.4897 8.16786 63.0257 8.77377C63.585 9.35638 64.121 9.95064 64.6337 10.5566C65.1697 11.1625 65.6591 11.6053 66.1019 11.8849C66.2883 12.0014 66.4282 12.1412 66.5214 12.3044C66.6379 12.4675 66.7428 12.6423 66.836 12.8287C66.9292 13.0152 67.0341 13.2016 67.1506 13.388C67.2671 13.5512 67.4186 13.691 67.605 13.8075C67.8847 14.0172 68.1993 14.1454 68.5489 14.192C68.9217 14.2386 69.248 14.3785 69.5276 14.6115C69.6209 14.6814 69.749 14.8446 69.9122 15.1009C70.0753 15.3572 70.2384 15.6369 70.4015 15.9399C70.5647 16.2195 70.7045 16.4992 70.821 16.7788C70.9608 17.0585 71.0308 17.2682 71.0308 17.408Z" fill="black"/>
<path d="M103.522 31.9141C103.522 32.0052 103.522 32.1289 103.522 32.2852C103.535 32.4284 103.535 32.5781 103.522 32.7344C103.522 32.8776 103.509 33.0143 103.483 33.1445C103.47 33.2617 103.437 33.3464 103.385 33.3984C103.268 33.5156 103.144 33.5938 103.014 33.6328C102.884 33.6589 102.747 33.6784 102.604 33.6914C102.474 33.6914 102.337 33.7044 102.194 33.7305C102.064 33.7435 101.933 33.7891 101.803 33.8672C101.829 33.9974 101.888 34.082 101.979 34.1211C102.083 34.1471 102.187 34.1732 102.292 34.1992C102.409 34.2122 102.506 34.2513 102.585 34.3164C102.676 34.3685 102.721 34.4792 102.721 34.6484C102.721 34.9219 102.676 35.1497 102.585 35.332C102.506 35.5013 102.409 35.6576 102.292 35.8008C102.174 35.931 102.057 36.0677 101.94 36.2109C101.823 36.3542 101.732 36.5365 101.667 36.7578C101.588 36.9922 101.491 37.1615 101.374 37.2656C101.256 37.3698 101.126 37.4544 100.983 37.5195C100.853 37.5716 100.716 37.6302 100.573 37.6953C100.43 37.7604 100.293 37.8776 100.163 38.0469C100.019 38.2031 99.9022 38.2812 99.8111 38.2812C99.772 38.2812 99.7264 38.2747 99.6744 38.2617C99.6223 38.2487 99.5572 38.2422 99.4791 38.2422C99.4139 38.2422 99.3488 38.2682 99.2837 38.3203C99.2317 38.3594 99.2056 38.4115 99.2056 38.4766C99.2056 38.5026 99.2186 38.5156 99.2447 38.5156C99.2707 38.5156 99.2772 38.5221 99.2642 38.5352C99.108 38.6784 98.828 38.8477 98.4244 39.043C98.0207 39.2253 97.5585 39.401 97.0376 39.5703C96.5168 39.7266 95.9699 39.8633 95.397 39.9805C94.8371 40.0846 94.3033 40.1367 93.7955 40.1367C92.91 40.1367 92.0311 40.1107 91.1587 40.0586C90.2994 40.0195 89.4205 40 88.522 40H85.9244C85.8853 40 85.8267 40.0391 85.7486 40.1172C85.6835 40.1953 85.6054 40.2344 85.5142 40.2344C85.371 40.2344 85.1822 40.2148 84.9478 40.1758C84.7264 40.1367 84.5051 40.0716 84.2837 39.9805C84.0624 39.8893 83.8671 39.7786 83.6978 39.6484C83.5416 39.5052 83.4634 39.3424 83.4634 39.1602C83.4634 39.0951 83.4699 39.043 83.483 39.0039C83.496 38.9518 83.509 38.8932 83.522 38.8281C83.6392 38.4635 83.802 38.1901 84.0103 38.0078C84.2186 37.8125 84.44 37.6497 84.6744 37.5195C84.9218 37.3763 85.1692 37.2331 85.4166 37.0898C85.677 36.9466 85.9048 36.7448 86.1001 36.4844C86.3085 36.224 86.4777 35.8724 86.608 35.4297C86.7382 34.987 86.8033 34.3945 86.8033 33.6523C86.8033 32.9753 86.7577 32.3047 86.6666 31.6406C86.5884 30.9766 86.5494 30.306 86.5494 29.6289C86.5624 28.3789 86.5884 27.1419 86.6275 25.918C86.6796 24.694 86.7121 23.457 86.7251 22.207L86.7447 19.1406C86.7447 18.8151 86.7317 18.4375 86.7056 18.0078C86.6926 17.5781 86.6275 17.168 86.5103 16.7773C86.4061 16.3737 86.2304 16.0352 85.983 15.7617C85.7486 15.4753 85.41 15.3125 84.9673 15.2734C84.746 15.2604 84.4921 15.2018 84.2056 15.0977C83.9192 14.9935 83.6457 14.8568 83.3853 14.6875C83.1379 14.5052 82.9231 14.3034 82.7408 14.082C82.5585 13.8607 82.4673 13.6198 82.4673 13.3594C82.4673 13.138 82.5324 12.9557 82.6626 12.8125C82.7929 12.6562 82.9491 12.5326 83.1314 12.4414C83.3137 12.3372 83.509 12.2656 83.7173 12.2266C83.9387 12.1745 84.1405 12.1484 84.3228 12.1484C84.7395 12.1484 85.1496 12.194 85.5533 12.2852C85.9569 12.3633 86.3736 12.4023 86.8033 12.4023C87.3371 12.4023 87.871 12.3763 88.4048 12.3242C88.9517 12.2721 89.4921 12.2135 90.0259 12.1484C90.5598 12.0703 91.0936 12.0052 91.6275 11.9531C92.1744 11.901 92.7212 11.875 93.2681 11.875C93.7238 11.875 94.1796 11.8945 94.6353 11.9336C95.091 11.9596 95.5468 11.9857 96.0025 12.0117C96.0806 12.1159 96.2173 12.2005 96.4126 12.2656C96.608 12.3307 96.8163 12.3893 97.0376 12.4414C97.272 12.4935 97.4999 12.5391 97.7212 12.5781C97.9426 12.6042 98.1119 12.6302 98.2291 12.6562C98.5416 12.7214 98.8085 12.793 99.0298 12.8711C99.2642 12.9362 99.4595 13.0339 99.6158 13.1641C99.785 13.2812 99.9283 13.4375 100.045 13.6328C100.176 13.8281 100.293 14.082 100.397 14.3945C100.41 14.4336 100.469 14.4922 100.573 14.5703C100.69 14.6484 100.82 14.7266 100.963 14.8047C101.107 14.8828 101.243 14.9609 101.374 15.0391C101.504 15.1172 101.595 15.1823 101.647 15.2344C101.816 15.4036 101.986 15.6641 102.155 16.0156C102.337 16.3542 102.5 16.7188 102.643 17.1094C102.786 17.5 102.904 17.8841 102.995 18.2617C103.086 18.6393 103.131 18.9453 103.131 19.1797C103.131 19.6615 103.06 20.1432 102.917 20.625C102.786 21.1068 102.65 21.5755 102.506 22.0312C102.415 22.3047 102.279 22.5651 102.096 22.8125C101.927 23.0599 101.758 23.3138 101.588 23.5742C101.419 23.8216 101.269 24.0755 101.139 24.3359C101.022 24.5964 100.963 24.8698 100.963 25.1562C100.963 25.5599 101.048 25.9635 101.217 26.3672C101.387 26.7708 101.582 27.1419 101.803 27.4805C101.894 27.6367 101.999 27.7865 102.116 27.9297C102.246 28.0729 102.37 28.2161 102.487 28.3594C102.617 28.4896 102.734 28.6328 102.838 28.7891C102.943 28.9323 103.034 29.0951 103.112 29.2773C103.281 29.694 103.392 30.1302 103.444 30.5859C103.496 31.0286 103.522 31.4714 103.522 31.9141ZM99.8306 19.9805C99.8306 19.8372 99.8111 19.668 99.772 19.4727C99.733 19.2773 99.6874 19.082 99.6353 18.8867C99.5832 18.6784 99.5311 18.4766 99.4791 18.2812C99.427 18.0729 99.3879 17.8906 99.3619 17.7344C99.3228 17.5391 99.2642 17.3828 99.1861 17.2656C99.108 17.1354 99.0168 17.0312 98.9126 16.9531C98.8085 16.862 98.6913 16.7773 98.5611 16.6992C98.4309 16.6081 98.3007 16.5039 98.1705 16.3867C97.8449 16.1003 97.5324 15.8724 97.233 15.7031C96.9335 15.5339 96.621 15.4036 96.2955 15.3125C95.9699 15.2214 95.6249 15.1628 95.2603 15.1367C94.8957 15.0977 94.4921 15.0781 94.0494 15.0781C93.7629 15.0781 93.4634 15.0846 93.1509 15.0977C92.8514 15.1107 92.578 15.1497 92.3306 15.2148C92.2785 15.2409 92.246 15.2734 92.233 15.3125C92.2199 15.3516 92.1874 15.3906 92.1353 15.4297C92.0962 15.4688 92.0181 15.5078 91.9009 15.5469C91.7837 15.5729 91.6014 15.5859 91.3541 15.5859C90.9764 15.5859 90.6639 15.638 90.4166 15.7422C90.1822 15.8464 89.9934 15.9961 89.8501 16.1914C89.7199 16.3737 89.6288 16.6016 89.5767 16.875C89.5246 17.1354 89.4921 17.4349 89.4791 17.7734C89.466 18.2031 89.453 18.6458 89.44 19.1016C89.44 19.5573 89.4205 20.013 89.3814 20.4688C89.3423 20.9115 89.2707 21.3477 89.1666 21.7773C89.0754 22.207 88.9257 22.6237 88.7173 23.0273C89.4465 23.2096 90.1887 23.3529 90.9439 23.457C91.6991 23.5612 92.4413 23.6133 93.1705 23.6133C93.6783 23.6133 94.1861 23.5938 94.6939 23.5547C95.2147 23.5156 95.7225 23.4505 96.2173 23.3594C96.3996 23.3203 96.6405 23.2487 96.94 23.1445C97.2525 23.0404 97.552 22.9102 97.8384 22.7539C98.1379 22.5977 98.3983 22.4219 98.6197 22.2266C98.8541 22.0312 98.9843 21.8294 99.0103 21.6211C99.0363 21.4648 99.0884 21.3216 99.1666 21.1914C99.2577 21.0612 99.3488 20.9375 99.44 20.8203C99.5442 20.6901 99.6353 20.5599 99.7134 20.4297C99.7916 20.2995 99.8306 20.1497 99.8306 19.9805ZM100.475 33.0273C100.475 32.6888 100.43 32.3503 100.338 32.0117C100.26 31.6732 100.195 31.3346 100.143 30.9961C100.104 30.6836 100.065 30.4362 100.026 30.2539C99.9999 30.0716 99.9478 29.9154 99.8697 29.7852C99.8046 29.6419 99.7069 29.5052 99.5767 29.375C99.4465 29.2448 99.2577 29.0755 99.0103 28.8672C98.9452 28.5807 98.8736 28.4115 98.7955 28.3594C98.7304 28.3073 98.6587 28.2812 98.5806 28.2812C98.5155 28.2812 98.4439 28.2878 98.3658 28.3008C98.3007 28.3008 98.2356 28.3008 98.1705 28.3008L97.897 27.7539C97.6496 27.5846 97.4283 27.4544 97.233 27.3633C97.0507 27.2721 96.8098 27.2135 96.5103 27.1875C96.2499 27.1615 95.9895 27.1094 95.7291 27.0312C95.4817 26.9531 95.2212 26.9141 94.9478 26.9141C94.8306 26.9141 94.7395 26.9596 94.6744 27.0508C94.6093 27.1419 94.5572 27.1875 94.5181 27.1875C94.44 27.1875 94.3488 27.1745 94.2447 27.1484C94.1405 27.1094 94.0298 27.0768 93.9126 27.0508C93.7955 27.0117 93.6718 26.9792 93.5416 26.9531C93.4244 26.9141 93.3137 26.8945 93.2095 26.8945C92.6236 26.8945 92.0507 26.9596 91.4908 27.0898C90.9439 27.207 90.3905 27.3372 89.8306 27.4805C89.7264 27.7539 89.6223 28.0534 89.5181 28.3789C89.427 28.7044 89.3423 29.0365 89.2642 29.375C89.1861 29.7135 89.121 30.0521 89.0689 30.3906C89.0168 30.7161 88.9908 31.0221 88.9908 31.3086C88.9908 31.4518 89.0038 31.569 89.0298 31.6602C89.0559 31.7383 89.0884 31.8099 89.1275 31.875C89.1666 31.9401 89.1991 32.0052 89.2251 32.0703C89.2512 32.1354 89.2642 32.2135 89.2642 32.3047C89.2642 32.8255 89.2056 33.3398 89.0884 33.8477C88.9843 34.3424 88.9322 34.8503 88.9322 35.3711C88.9322 35.7096 88.9777 36.0352 89.0689 36.3477C89.16 36.6602 89.3163 36.9466 89.5376 37.207C89.7981 37.207 90.0455 37.2591 90.2798 37.3633C90.5142 37.4544 90.7616 37.5 91.022 37.5C91.2043 37.5 91.3801 37.4544 91.5494 37.3633C91.7317 37.2721 91.8749 37.2266 91.9791 37.2266C92.0832 37.2266 92.1613 37.2721 92.2134 37.3633C92.2785 37.4544 92.3827 37.5 92.5259 37.5H92.6041C92.6431 37.4349 92.7147 37.3828 92.8189 37.3438C92.9231 37.2917 93.0402 37.2591 93.1705 37.2461C93.3137 37.2201 93.4634 37.207 93.6197 37.207C93.7759 37.194 93.9257 37.1875 94.0689 37.1875C94.3423 37.1875 94.5507 37.194 94.6939 37.207C94.8501 37.2201 95.0259 37.2266 95.2212 37.2266C95.7681 37.1094 96.2889 36.9661 96.7837 36.7969C97.2004 36.6536 97.6236 36.4714 98.0533 36.25C98.496 36.0286 98.841 35.7682 99.0884 35.4688C99.2186 35.3385 99.3619 35.1758 99.5181 34.9805C99.6874 34.7852 99.8371 34.5833 99.9673 34.375C100.111 34.1536 100.228 33.9323 100.319 33.7109C100.423 33.4766 100.475 33.2487 100.475 33.0273Z" fill="black"/>
<path d="M127.897 36.582C127.897 36.8034 127.858 37.0117 127.78 37.207C127.702 37.4023 127.63 37.6042 127.565 37.8125C127.513 37.9948 127.474 38.1445 127.448 38.2617C127.435 38.3789 127.409 38.4831 127.37 38.5742C127.331 38.6523 127.266 38.7305 127.174 38.8086C127.096 38.8737 126.966 38.9518 126.784 39.043C126.393 39.2513 125.976 39.4661 125.534 39.6875C125.104 39.8958 124.668 40 124.225 40C123.848 40 123.489 39.9154 123.151 39.7461C122.825 39.5638 122.519 39.3685 122.233 39.1602C121.96 38.9388 121.706 38.737 121.471 38.5547C121.25 38.3724 121.061 38.2812 120.905 38.2812C120.736 38.2812 120.586 38.3268 120.456 38.418C120.338 38.5091 120.215 38.6068 120.085 38.7109C119.967 38.8151 119.831 38.9128 119.674 39.0039C119.531 39.0951 119.349 39.1406 119.127 39.1406C118.945 39.1406 118.756 39.1732 118.561 39.2383C118.366 39.3034 118.17 39.3815 117.975 39.4727C117.78 39.5508 117.578 39.6354 117.37 39.7266C117.174 39.8047 116.992 39.8698 116.823 39.9219C116.237 40.0781 115.644 40.1693 115.045 40.1953C114.46 40.2214 113.867 40.2344 113.268 40.2344C113.112 40.2344 112.871 40.2279 112.545 40.2148C112.22 40.2148 111.888 40.1823 111.549 40.1172C111.224 40.0651 110.931 39.974 110.67 39.8438C110.423 39.7135 110.299 39.5312 110.299 39.2969C110.299 39.2448 110.306 39.1992 110.319 39.1602C110.228 39.2643 110.124 39.349 110.006 39.4141C109.889 39.4792 109.759 39.5117 109.616 39.5117C109.407 39.5117 109.154 39.3685 108.854 39.082C108.555 38.7956 108.268 38.4635 107.995 38.0859C107.721 37.7083 107.487 37.3372 107.292 36.9727C107.096 36.5951 106.999 36.3151 106.999 36.1328C106.999 35.9896 107.038 35.8594 107.116 35.7422C107.207 35.625 107.252 35.4948 107.252 35.3516C107.252 35.1693 107.226 35 107.174 34.8438C107.135 34.6745 107.116 34.4987 107.116 34.3164C107.116 34.082 107.161 33.8346 107.252 33.5742C107.344 33.3008 107.454 33.0339 107.585 32.7734C107.715 32.5 107.851 32.2396 107.995 31.9922C108.138 31.7318 108.268 31.4909 108.385 31.2695C108.516 31.0091 108.698 30.8008 108.932 30.6445C109.167 30.4883 109.414 30.3516 109.674 30.2344C109.935 30.1172 110.195 30 110.456 29.8828C110.716 29.7656 110.944 29.6094 111.139 29.4141C111.335 29.6354 111.588 29.7461 111.901 29.7461C112.226 29.7461 112.545 29.7005 112.858 29.6094C113.17 29.5052 113.489 29.4531 113.815 29.4531C114.075 29.4531 114.323 29.4792 114.557 29.5312C114.805 29.5833 115.058 29.6094 115.319 29.6094C115.605 29.6094 115.814 29.5768 115.944 29.5117C116.087 29.4336 116.263 29.3034 116.471 29.1211C116.68 28.9388 116.94 28.8021 117.252 28.7109C117.578 28.6068 117.91 28.5286 118.249 28.4766C118.6 28.4115 118.945 28.3464 119.284 28.2812C119.635 28.2161 119.948 28.125 120.221 28.0078C120.495 27.8776 120.716 27.7083 120.885 27.5C121.055 27.2786 121.139 26.9792 121.139 26.6016C121.139 26.1849 121.016 25.7487 120.768 25.293C120.534 24.8242 120.228 24.401 119.85 24.0234C119.473 23.6328 119.056 23.3138 118.6 23.0664C118.144 22.819 117.708 22.6953 117.292 22.6953C117.239 22.6953 117.187 22.7018 117.135 22.7148C117.083 22.7279 117.038 22.7344 116.999 22.7344C116.686 22.7865 116.335 22.8255 115.944 22.8516C115.553 22.8646 115.189 22.9232 114.85 23.0273C114.512 23.1185 114.225 23.2812 113.991 23.5156C113.756 23.737 113.639 24.069 113.639 24.5117C113.639 24.7721 113.659 25.0326 113.698 25.293C113.75 25.5404 113.776 25.7943 113.776 26.0547C113.776 26.4453 113.678 26.7708 113.483 27.0312C113.301 27.2917 113.06 27.5 112.76 27.6562C112.474 27.8125 112.155 27.9232 111.803 27.9883C111.452 28.0404 111.113 28.0664 110.788 28.0664C110.397 28.0664 110.058 28.0143 109.772 27.9102C109.486 27.806 109.251 27.5651 109.069 27.1875C108.926 26.9141 108.769 26.6211 108.6 26.3086C108.444 25.9831 108.366 25.6576 108.366 25.332C108.366 24.9805 108.424 24.6549 108.542 24.3555C108.672 24.043 108.815 23.7435 108.971 23.457C109.127 23.1576 109.277 22.8646 109.42 22.5781C109.577 22.2786 109.687 21.9596 109.752 21.6211C109.844 21.569 109.967 21.5169 110.124 21.4648C110.293 21.4128 110.469 21.3607 110.651 21.3086C110.846 21.2565 111.029 21.2109 111.198 21.1719C111.38 21.1198 111.53 21.0742 111.647 21.0352C111.96 20.944 112.259 20.8398 112.545 20.7227C112.845 20.5924 113.144 20.4753 113.444 20.3711C113.756 20.2669 114.062 20.1758 114.362 20.0977C114.674 20.0195 114.993 19.974 115.319 19.9609L115.924 19.9414C116.484 19.9414 117.057 19.9935 117.643 20.0977C118.229 20.1888 118.802 20.3385 119.362 20.5469C119.922 20.7552 120.449 21.0156 120.944 21.3281C121.452 21.6276 121.901 21.9857 122.292 22.4023C122.578 22.7148 122.812 23.0859 122.995 23.5156C123.19 23.9323 123.34 24.375 123.444 24.8438C123.561 25.3125 123.639 25.7878 123.678 26.2695C123.73 26.7383 123.756 27.1745 123.756 27.5781C123.756 28.125 123.737 28.6654 123.698 29.1992C123.672 29.7201 123.659 30.2539 123.659 30.8008C123.659 31.3216 123.685 31.8424 123.737 32.3633C123.802 32.8711 123.874 33.3854 123.952 33.9062C124.03 34.4141 124.095 34.9284 124.147 35.4492C124.212 35.957 124.245 36.4648 124.245 36.9727C124.271 37.2852 124.31 37.4805 124.362 37.5586C124.427 37.6237 124.492 37.6562 124.557 37.6562C124.844 37.6562 125.071 37.5716 125.241 37.4023C125.423 37.2201 125.586 37.0247 125.729 36.8164C125.872 36.5951 126.029 36.3932 126.198 36.2109C126.367 36.0286 126.582 35.9375 126.842 35.9375C126.96 35.9375 127.077 35.944 127.194 35.957C127.324 35.9701 127.441 36.0026 127.545 36.0547C127.65 36.0938 127.734 36.1589 127.799 36.25C127.864 36.3281 127.897 36.4388 127.897 36.582ZM121.471 31.7188C121.471 31.6406 121.465 31.5039 121.452 31.3086C121.452 31.1133 121.439 30.918 121.413 30.7227C121.387 30.5143 121.341 30.332 121.276 30.1758C121.224 30.0195 121.139 29.9414 121.022 29.9414C120.996 29.9414 120.963 29.9544 120.924 29.9805C120.885 29.9935 120.853 30 120.827 30C120.332 30.2734 119.909 30.5013 119.557 30.6836C119.206 30.8529 118.854 30.9961 118.502 31.1133C118.164 31.2174 117.799 31.2891 117.409 31.3281C117.018 31.3672 116.53 31.3867 115.944 31.3867C115.866 31.3867 115.651 31.4193 115.299 31.4844C114.948 31.5495 114.564 31.6276 114.147 31.7188C113.73 31.7969 113.34 31.8815 112.975 31.9727C112.611 32.0508 112.383 32.1029 112.292 32.1289C112.122 32.194 111.999 32.2591 111.92 32.3242C111.855 32.3893 111.803 32.4609 111.764 32.5391C111.725 32.6172 111.686 32.7018 111.647 32.793C111.608 32.8711 111.536 32.9557 111.432 33.0469C111.302 33.151 111.159 33.2357 111.002 33.3008C110.859 33.3659 110.723 33.4635 110.592 33.5938C110.397 33.7891 110.215 34.0495 110.045 34.375C109.876 34.6875 109.792 34.987 109.792 35.2734C109.792 35.625 109.883 35.9375 110.065 36.2109C110.247 36.4844 110.488 36.7188 110.788 36.9141C111.087 37.1094 111.426 37.2786 111.803 37.4219C112.181 37.5651 112.558 37.6758 112.936 37.7539C113.327 37.832 113.698 37.8906 114.049 37.9297C114.414 37.9688 114.726 37.9883 114.987 37.9883C115.299 37.9883 115.67 37.9688 116.1 37.9297C116.53 37.8776 116.96 37.806 117.389 37.7148C117.819 37.6107 118.223 37.474 118.6 37.3047C118.978 37.1354 119.277 36.9206 119.499 36.6602C119.59 36.556 119.655 36.4648 119.694 36.3867C119.733 36.2956 119.772 36.2109 119.811 36.1328C119.863 36.0417 119.915 35.9505 119.967 35.8594C120.032 35.7682 120.13 35.6706 120.26 35.5664C120.56 35.319 120.788 35.0456 120.944 34.7461C121.113 34.4466 121.237 34.1341 121.315 33.8086C121.393 33.4831 121.439 33.1445 121.452 32.793C121.465 32.4414 121.471 32.0833 121.471 31.7188Z" fill="black"/>
<path d="M150.71 25.7422C150.71 26.0026 150.657 26.224 150.553 26.4062C150.449 26.5885 150.332 26.7643 150.202 26.9336C150.085 27.0898 149.961 27.2526 149.831 27.4219C149.713 27.5911 149.635 27.793 149.596 28.0273C149.479 27.9753 149.355 27.9427 149.225 27.9297C149.108 27.9167 148.984 27.9102 148.854 27.9102C148.542 27.9102 148.229 27.9362 147.917 27.9883C147.617 28.0273 147.318 28.0469 147.018 28.0469C146.667 28.0469 146.374 27.9427 146.139 27.7344C145.918 27.513 145.736 27.2461 145.592 26.9336C145.462 26.6211 145.371 26.2891 145.319 25.9375C145.267 25.5729 145.241 25.2474 145.241 24.9609C145.241 24.5964 145.299 24.2253 145.417 23.8477C145.312 23.8086 145.221 23.7891 145.143 23.7891C144.974 23.7891 144.85 23.8411 144.772 23.9453C144.707 24.0495 144.609 24.1016 144.479 24.1016C144.362 24.1016 144.258 24.0625 144.167 23.9844C144.075 23.8932 143.965 23.8477 143.835 23.8477C143.639 23.8477 143.392 23.9128 143.092 24.043C142.806 24.1602 142.526 24.3164 142.252 24.5117C141.979 24.707 141.738 24.9219 141.53 25.1562C141.335 25.3776 141.237 25.5924 141.237 25.8008C140.963 25.8268 140.703 25.9049 140.456 26.0352C140.221 26.1523 139.993 26.2826 139.772 26.4258C139.603 26.5299 139.46 26.6927 139.342 26.9141C139.225 27.1354 139.114 27.3763 139.01 27.6367C138.919 27.8841 138.821 28.138 138.717 28.3984C138.626 28.6589 138.516 28.8737 138.385 29.043C138.164 29.3294 137.969 29.6224 137.799 29.9219C137.643 30.2083 137.565 30.5339 137.565 30.8984C137.565 31.3542 137.637 31.8164 137.78 32.2852C137.923 32.7539 137.995 33.2292 137.995 33.7109C137.995 34.0234 137.969 34.3359 137.917 34.6484C137.877 34.9609 137.858 35.2669 137.858 35.5664C137.858 35.931 137.923 36.224 138.053 36.4453C138.183 36.6667 138.359 36.8424 138.581 36.9727C138.802 37.0898 139.056 37.168 139.342 37.207C139.629 37.2461 139.922 37.2656 140.221 37.2656C140.547 37.2656 140.859 37.2591 141.159 37.2461C141.471 37.2201 141.758 37.207 142.018 37.207C142.109 37.3112 142.161 37.4089 142.174 37.5C142.187 37.5911 142.181 37.6888 142.155 37.793C142.142 37.8841 142.116 37.9818 142.077 38.0859C142.051 38.1771 142.038 38.2878 142.038 38.418C142.038 38.4701 142.051 38.5352 142.077 38.6133C142.272 38.6133 142.441 38.5677 142.585 38.4766C142.728 38.3854 142.832 38.2422 142.897 38.0469C142.988 38.0729 143.066 38.112 143.131 38.1641C143.21 38.2161 143.249 38.2943 143.249 38.3984C143.249 38.4766 143.229 38.5547 143.19 38.6328C143.151 38.6979 143.105 38.763 143.053 38.8281C143.001 38.8932 142.956 38.9648 142.917 39.043C142.877 39.1081 142.858 39.1862 142.858 39.2773C142.858 39.3294 142.864 39.388 142.877 39.4531C142.891 39.5052 142.91 39.5508 142.936 39.5898C142.871 39.694 142.78 39.7656 142.663 39.8047C142.545 39.8438 142.428 39.8633 142.311 39.8633C142.103 39.8633 141.927 39.8307 141.784 39.7656C141.654 39.7005 141.53 39.6289 141.413 39.5508C141.308 39.4727 141.211 39.401 141.12 39.3359C141.029 39.2708 140.918 39.2383 140.788 39.2383C140.736 39.2383 140.657 39.2513 140.553 39.2773C140.449 39.3034 140.345 39.3359 140.241 39.375C140.137 39.4141 140.045 39.4661 139.967 39.5312C139.889 39.5833 139.85 39.6354 139.85 39.6875C139.85 39.7917 139.883 39.8828 139.948 39.9609C140.026 40.0391 140.065 40.1302 140.065 40.2344C140.065 40.3255 140.032 40.3971 139.967 40.4492C139.902 40.5013 139.824 40.5339 139.733 40.5469C139.642 40.5729 139.544 40.5859 139.44 40.5859C139.349 40.599 139.271 40.6055 139.206 40.6055C138.698 40.6055 138.19 40.5469 137.682 40.4297C137.187 40.3255 136.686 40.2734 136.178 40.2734C135.944 40.2734 135.71 40.3255 135.475 40.4297C135.241 40.5339 134.993 40.5859 134.733 40.5859C134.59 40.5859 134.479 40.5534 134.401 40.4883C134.336 40.4362 134.277 40.3711 134.225 40.293C134.173 40.2148 134.114 40.1432 134.049 40.0781C133.984 40.026 133.887 40 133.756 40C133.509 40 133.262 40.026 133.014 40.0781C132.78 40.1302 132.539 40.1823 132.292 40.2344C132.057 40.2995 131.816 40.3516 131.569 40.3906C131.335 40.4427 131.094 40.4688 130.846 40.4688C130.716 40.4688 130.56 40.4492 130.377 40.4102C130.195 40.3841 130.019 40.332 129.85 40.2539C129.681 40.1758 129.538 40.0781 129.42 39.9609C129.303 39.8438 129.245 39.7005 129.245 39.5312C129.245 39.4271 129.303 39.2904 129.42 39.1211C129.551 38.9518 129.694 38.7891 129.85 38.6328C130.006 38.4635 130.163 38.3203 130.319 38.2031C130.475 38.0859 130.592 38.0273 130.67 38.0273C130.879 38.0273 131.081 38.0339 131.276 38.0469C131.484 38.0599 131.699 38.0664 131.92 38.0664C132.272 38.0664 132.624 38.0143 132.975 37.9102C133.34 37.793 133.665 37.6302 133.952 37.4219C134.251 37.2135 134.492 36.9531 134.674 36.6406C134.857 36.3281 134.948 35.9766 134.948 35.5859C134.948 35.4167 134.935 35.2539 134.909 35.0977C134.883 34.9284 134.87 34.7591 134.87 34.5898C134.87 34.2513 134.909 33.9128 134.987 33.5742C135.065 33.2357 135.104 32.8971 135.104 32.5586C135.104 32.1029 135.052 31.6406 134.948 31.1719C134.857 30.6901 134.811 30.2083 134.811 29.7266C134.811 29.2969 134.818 28.8737 134.831 28.457C134.857 28.0273 134.87 27.5977 134.87 27.168C134.87 26.9727 134.863 26.6862 134.85 26.3086C134.837 25.931 134.792 25.5534 134.713 25.1758C134.648 24.7982 134.538 24.4661 134.381 24.1797C134.238 23.8932 134.036 23.75 133.776 23.75C133.489 23.75 133.203 23.7826 132.917 23.8477C132.63 23.9128 132.337 23.9453 132.038 23.9453C131.816 23.9453 131.556 23.9323 131.256 23.9062C130.957 23.8672 130.67 23.8021 130.397 23.7109C130.124 23.6068 129.889 23.4635 129.694 23.2812C129.499 23.099 129.401 22.8581 129.401 22.5586C129.401 22.2331 129.446 21.9727 129.538 21.7773C129.629 21.569 129.746 21.4128 129.889 21.3086C130.045 21.2044 130.221 21.1328 130.417 21.0938C130.625 21.0547 130.846 21.0352 131.081 21.0352C131.289 21.0352 131.504 21.0417 131.725 21.0547C131.946 21.0677 132.161 21.0742 132.37 21.0742C132.786 21.0742 133.196 21.0547 133.6 21.0156C134.017 20.9635 134.433 20.9375 134.85 20.9375C135.137 20.9375 135.423 20.9505 135.71 20.9766C135.996 21.0026 136.276 21.0612 136.549 21.1523C136.797 21.2305 136.979 21.3802 137.096 21.6016C137.213 21.8099 137.318 22.0247 137.409 22.2461C137.513 22.4674 137.63 22.6693 137.76 22.8516C137.891 23.0208 138.099 23.1055 138.385 23.1055C138.516 23.1055 138.633 23.0729 138.737 23.0078C138.854 22.9297 138.965 22.8451 139.069 22.7539C139.173 22.6628 139.277 22.5781 139.381 22.5C139.486 22.4219 139.609 22.3698 139.752 22.3438C140.039 22.3047 140.299 22.2135 140.534 22.0703C140.781 21.9271 141.022 21.7839 141.256 21.6406C141.491 21.4974 141.725 21.3672 141.96 21.25C142.207 21.1328 142.474 21.0742 142.76 21.0742C142.93 21.0742 143.138 21.0547 143.385 21.0156C143.646 20.9766 143.9 20.9245 144.147 20.8594C144.407 20.7812 144.648 20.6901 144.87 20.5859C145.104 20.4818 145.286 20.3646 145.417 20.2344C145.768 20.2604 146.178 20.3451 146.647 20.4883C147.129 20.6315 147.585 20.8268 148.014 21.0742C148.457 21.3086 148.841 21.5885 149.167 21.9141C149.492 22.2396 149.681 22.6042 149.733 23.0078C149.772 23.2552 149.844 23.4896 149.948 23.7109C150.052 23.9323 150.156 24.1536 150.26 24.375C150.377 24.5833 150.482 24.8047 150.573 25.0391C150.664 25.2604 150.71 25.4948 150.71 25.7422Z" fill="black"/>
<path d="M172.331 29.9609C172.331 30.1823 172.279 30.3776 172.174 30.5469C172.07 30.7161 171.888 30.8073 171.627 30.8203C171.706 31.0677 171.823 31.3021 171.979 31.5234C172.135 31.7448 172.213 31.9922 172.213 32.2656C172.213 32.4479 172.181 32.6302 172.116 32.8125C172.064 32.9818 171.999 33.151 171.92 33.3203C171.855 33.4896 171.784 33.6589 171.706 33.8281C171.627 33.9974 171.569 34.1667 171.53 34.3359C171.465 34.5964 171.315 34.9674 171.081 35.4492C170.859 35.918 170.605 36.4062 170.319 36.9141C170.045 37.4219 169.766 37.8971 169.479 38.3398C169.193 38.7695 168.952 39.0755 168.756 39.2578C168.613 39.388 168.463 39.4792 168.307 39.5312C168.151 39.5833 167.995 39.6224 167.838 39.6484C167.682 39.6745 167.519 39.7005 167.35 39.7266C167.181 39.7396 167.018 39.7786 166.862 39.8438C166.549 39.987 166.25 40.1497 165.963 40.332C165.69 40.5273 165.377 40.625 165.026 40.625C164.883 40.625 164.752 40.5924 164.635 40.5273C164.518 40.4622 164.401 40.3906 164.284 40.3125C164.18 40.2344 164.069 40.1628 163.952 40.0977C163.835 40.0326 163.704 40 163.561 40C163.392 40.1042 163.177 40.1888 162.917 40.2539C162.656 40.319 162.383 40.3711 162.096 40.4102C161.823 40.4492 161.549 40.4753 161.276 40.4883C161.016 40.5013 160.788 40.5078 160.592 40.5078C159.941 40.5078 159.394 40.3581 158.952 40.0586C158.509 39.7721 158.099 39.3815 157.721 38.8867C157.63 38.9128 157.532 38.9583 157.428 39.0234C157.324 39.0885 157.22 39.1602 157.116 39.2383C157.012 39.3164 156.914 39.388 156.823 39.4531C156.732 39.5052 156.66 39.5312 156.608 39.5312L156.569 39.2773L156.452 39.1406C156.335 39.1406 156.23 39.1797 156.139 39.2578C156.061 39.3229 155.983 39.401 155.905 39.4922C155.84 39.5833 155.762 39.668 155.67 39.7461C155.592 39.8112 155.488 39.8438 155.358 39.8438C155.215 39.8438 155.078 39.8242 154.948 39.7852C154.818 39.7331 154.752 39.6159 154.752 39.4336C154.752 39.2904 154.779 39.1667 154.831 39.0625C154.896 38.9453 154.928 38.8151 154.928 38.6719C154.928 38.5026 154.909 38.3398 154.87 38.1836C154.831 38.0273 154.811 37.8711 154.811 37.7148C154.811 37.5456 154.824 37.3828 154.85 37.2266C154.889 37.0703 154.909 36.9076 154.909 36.7383C154.909 36.543 154.876 36.3477 154.811 36.1523C154.759 35.957 154.7 35.7682 154.635 35.5859C154.57 35.3906 154.505 35.2018 154.44 35.0195C154.388 34.8242 154.362 34.6224 154.362 34.4141C154.362 34.1406 154.42 33.8802 154.538 33.6328C154.655 33.3854 154.713 33.125 154.713 32.8516C154.713 32.7604 154.7 32.6888 154.674 32.6367C154.648 32.5716 154.622 32.5195 154.596 32.4805C154.57 32.4284 154.544 32.3698 154.518 32.3047C154.492 32.2266 154.479 32.1159 154.479 31.9727C154.479 31.8294 154.479 31.6797 154.479 31.5234C154.492 31.3542 154.499 31.237 154.499 31.1719C154.499 30.9635 154.479 30.7617 154.44 30.5664C154.401 30.3711 154.381 30.1693 154.381 29.9609C154.381 29.6224 154.427 29.2839 154.518 28.9453C154.609 28.6068 154.655 28.2682 154.655 27.9297C154.655 27.474 154.616 27.0182 154.538 26.5625C154.473 26.1068 154.44 25.6445 154.44 25.1758C154.44 25.0065 154.46 24.8372 154.499 24.668C154.551 24.4987 154.603 24.3294 154.655 24.1602C154.72 23.9909 154.772 23.8281 154.811 23.6719C154.863 23.5026 154.889 23.3268 154.889 23.1445C154.889 22.793 154.863 22.4479 154.811 22.1094C154.759 21.7708 154.7 21.4323 154.635 21.0938C154.583 20.7422 154.531 20.3971 154.479 20.0586C154.44 19.707 154.42 19.3555 154.42 19.0039C154.42 18.7956 154.42 18.5938 154.42 18.3984C154.433 18.1901 154.44 17.9818 154.44 17.7734C154.44 17.1484 154.336 16.6862 154.127 16.3867C153.919 16.0742 153.652 15.8529 153.327 15.7227C153.014 15.5794 152.676 15.4948 152.311 15.4688C151.946 15.4427 151.601 15.4036 151.276 15.3516C150.963 15.2865 150.703 15.1758 150.495 15.0195C150.286 14.8503 150.182 14.5638 150.182 14.1602C150.182 13.8086 150.273 13.5286 150.456 13.3203C150.638 13.112 150.866 12.9557 151.139 12.8516C151.4 12.7344 151.686 12.6628 151.999 12.6367C152.311 12.5977 152.598 12.5781 152.858 12.5781C153.535 12.5781 154.206 12.6432 154.87 12.7734C155.534 12.8906 156.204 12.9622 156.881 12.9883C157.038 13.0273 157.135 13.099 157.174 13.2031C157.213 13.3073 157.22 13.4375 157.194 13.5938C157.181 13.75 157.155 13.9258 157.116 14.1211C157.077 14.3164 157.057 14.5247 157.057 14.7461C157.057 15.1758 157.044 15.6055 157.018 16.0352C157.005 16.4648 156.999 16.8555 156.999 17.207C156.999 17.3242 156.999 17.5326 156.999 17.832C157.012 18.1315 157.025 18.4701 157.038 18.8477C157.064 19.2122 157.096 19.6029 157.135 20.0195C157.187 20.4232 157.246 20.7943 157.311 21.1328C157.389 21.4583 157.48 21.7318 157.585 21.9531C157.689 22.1745 157.819 22.2852 157.975 22.2852C158.105 22.2852 158.223 22.2526 158.327 22.1875C158.444 22.1224 158.555 22.0443 158.659 21.9531C158.763 21.862 158.861 21.7708 158.952 21.6797C159.056 21.5755 159.167 21.4974 159.284 21.4453C159.557 21.3281 159.857 21.2435 160.182 21.1914C160.521 21.1263 160.846 21.0938 161.159 21.0938C161.276 21.0938 161.393 21.0612 161.51 20.9961C161.627 20.931 161.745 20.8659 161.862 20.8008C161.979 20.7227 162.103 20.651 162.233 20.5859C162.363 20.5208 162.506 20.4883 162.663 20.4883C162.845 20.4883 163.021 20.5208 163.19 20.5859C163.372 20.638 163.542 20.7031 163.698 20.7812C163.867 20.8594 164.036 20.9375 164.206 21.0156C164.388 21.0807 164.57 21.1198 164.752 21.1328C165.013 21.1589 165.273 21.1914 165.534 21.2305C165.807 21.2565 166.068 21.3216 166.315 21.4258C166.458 21.4909 166.562 21.569 166.627 21.6602C166.693 21.7513 166.784 21.8294 166.901 21.8945C167.044 21.9857 167.181 22.0378 167.311 22.0508C167.441 22.0638 167.571 22.0768 167.702 22.0898C167.832 22.1029 167.969 22.1354 168.112 22.1875C168.255 22.2266 168.418 22.3177 168.6 22.4609C168.782 22.6172 168.971 22.7799 169.167 22.9492C169.375 23.1055 169.564 23.2747 169.733 23.457C169.915 23.6393 170.071 23.8346 170.202 24.043C170.345 24.2513 170.443 24.4792 170.495 24.7266C170.586 25.2214 170.723 25.7682 170.905 26.3672C171.087 26.9661 171.321 27.474 171.608 27.8906C171.816 28.1901 171.986 28.5156 172.116 28.8672C172.259 29.2188 172.331 29.5833 172.331 29.9609ZM170.319 30.7617C170.306 30.5924 170.234 30.4622 170.104 30.3711C169.987 30.2799 169.857 30.2083 169.713 30.1562C169.583 30.0911 169.473 30.026 169.381 29.9609C169.303 29.8958 169.297 29.7982 169.362 29.668C169.388 29.5638 169.427 29.4987 169.479 29.4727C169.544 29.4336 169.609 29.4141 169.674 29.4141C169.648 29.1797 169.538 28.9062 169.342 28.5938C169.147 28.2812 169.004 27.9948 168.913 27.7344C168.835 27.5391 168.782 27.3568 168.756 27.1875C168.73 27.0182 168.691 26.862 168.639 26.7188C168.587 26.5755 168.509 26.4453 168.405 26.3281C168.314 26.1979 168.164 26.0677 167.956 25.9375C167.799 25.8464 167.669 25.7747 167.565 25.7227C167.474 25.6706 167.389 25.6185 167.311 25.5664C167.246 25.5013 167.181 25.4232 167.116 25.332C167.064 25.2409 166.999 25.1042 166.92 24.9219C166.842 24.7135 166.745 24.5703 166.627 24.4922C166.523 24.401 166.4 24.3359 166.256 24.2969C166.126 24.2578 165.976 24.2253 165.807 24.1992C165.651 24.1732 165.488 24.1276 165.319 24.0625C164.889 23.9062 164.479 23.776 164.088 23.6719C163.698 23.5547 163.268 23.4961 162.799 23.4961C161.914 23.4961 161.165 23.6328 160.553 23.9062C159.954 24.1667 159.46 24.5443 159.069 25.0391C158.678 25.5208 158.379 26.1003 158.17 26.7773C157.975 27.4414 157.845 28.1706 157.78 28.9648C157.754 29.2773 157.702 29.5898 157.624 29.9023C157.558 30.2148 157.487 30.5273 157.409 30.8398C157.331 31.1393 157.259 31.4453 157.194 31.7578C157.129 32.0703 157.096 32.3828 157.096 32.6953C157.096 32.8385 157.103 32.9427 157.116 33.0078C157.129 33.0599 157.187 33.138 157.292 33.2422C157.513 33.5026 157.637 33.776 157.663 34.0625C157.702 34.349 157.728 34.6289 157.741 34.9023C157.767 35.1628 157.825 35.4036 157.917 35.625C158.008 35.8333 158.216 35.9896 158.542 36.0938C158.737 36.1589 158.88 36.2305 158.971 36.3086C159.075 36.3737 159.16 36.4518 159.225 36.543C159.29 36.6341 159.349 36.7383 159.401 36.8555C159.466 36.9596 159.551 37.0768 159.655 37.207C159.928 37.1419 160.208 37.0964 160.495 37.0703C160.781 37.0443 161.061 36.9987 161.335 36.9336C161.335 37.1029 161.413 37.2396 161.569 37.3438C161.738 37.4479 161.933 37.526 162.155 37.5781C162.376 37.6302 162.598 37.6693 162.819 37.6953C163.053 37.7083 163.229 37.7148 163.346 37.7148C163.568 37.7148 163.802 37.7083 164.049 37.6953C164.297 37.6693 164.531 37.6237 164.752 37.5586C164.987 37.4935 165.202 37.4023 165.397 37.2852C165.605 37.1549 165.768 36.9792 165.885 36.7578C166.081 36.4193 166.308 36.1784 166.569 36.0352C166.842 35.8789 167.109 35.7422 167.37 35.625C167.643 35.5078 167.891 35.3646 168.112 35.1953C168.346 35.013 168.522 34.7331 168.639 34.3555C168.782 33.8997 168.932 33.4375 169.088 32.9688C169.245 32.487 169.323 31.9987 169.323 31.5039C169.323 31.3346 169.303 31.1719 169.264 31.0156C169.238 30.8464 169.193 30.6836 169.127 30.5273C169.284 30.6055 169.44 30.7031 169.596 30.8203C169.766 30.9375 169.941 30.9961 170.124 30.9961C170.189 30.9961 170.234 30.9766 170.26 30.9375C170.299 30.8854 170.319 30.8268 170.319 30.7617Z" fill="black"/>
<path d="M193.913 35.918C193.913 36.2695 193.854 36.569 193.737 36.8164C193.633 37.0638 193.489 37.2852 193.307 37.4805C193.138 37.6758 192.936 37.8581 192.702 38.0273C192.48 38.1966 192.252 38.3789 192.018 38.5742C191.836 38.7305 191.673 38.8477 191.53 38.9258C191.387 39.0039 191.243 39.069 191.1 39.1211C190.97 39.1732 190.827 39.2253 190.67 39.2773C190.527 39.3294 190.358 39.401 190.163 39.4922C189.902 39.6224 189.681 39.7461 189.499 39.8633C189.329 39.9674 189.154 40.0651 188.971 40.1562C188.802 40.2474 188.613 40.319 188.405 40.3711C188.196 40.4362 187.936 40.4883 187.624 40.5273C187.103 40.5924 186.575 40.6706 186.042 40.7617C185.521 40.8529 185 40.8984 184.479 40.8984C184.375 40.8984 184.264 40.8724 184.147 40.8203C184.043 40.7812 183.919 40.7357 183.776 40.6836C183.633 40.6445 183.47 40.599 183.288 40.5469C183.118 40.5078 182.91 40.4883 182.663 40.4883C182.402 40.4883 182.194 40.4492 182.038 40.3711C181.881 40.293 181.738 40.2018 181.608 40.0977C181.491 39.9935 181.367 39.8828 181.237 39.7656C181.107 39.6354 180.937 39.5247 180.729 39.4336C179.948 39.082 179.284 38.6589 178.737 38.1641C178.19 37.6693 177.721 37.1159 177.331 36.5039C176.94 35.8919 176.614 35.2279 176.354 34.5117C176.094 33.7956 175.872 33.0469 175.69 32.2656C175.547 31.7188 175.475 31.1719 175.475 30.625C175.475 29.9089 175.644 29.2448 175.983 28.6328C175.853 28.2682 175.788 27.9167 175.788 27.5781C175.788 27.3307 175.859 26.9661 176.002 26.4844C176.146 25.9896 176.328 25.4948 176.549 25C176.784 24.5052 177.031 24.0625 177.292 23.6719C177.565 23.2682 177.819 23.0208 178.053 22.9297C178.236 22.8646 178.359 22.8125 178.424 22.7734C178.502 22.7214 178.542 22.5911 178.542 22.3828C178.542 22.2266 178.6 22.0964 178.717 21.9922C178.848 21.888 178.997 21.8034 179.167 21.7383C179.349 21.6732 179.525 21.6146 179.694 21.5625C179.876 21.5104 180.026 21.4583 180.143 21.4062C180.625 21.1719 181.081 20.9766 181.51 20.8203C181.953 20.651 182.389 20.5143 182.819 20.4102C183.262 20.293 183.717 20.2083 184.186 20.1562C184.655 20.1042 185.156 20.0781 185.69 20.0781C185.976 20.0781 186.256 20.1172 186.53 20.1953C186.803 20.2734 187.064 20.3776 187.311 20.5078C187.571 20.625 187.825 20.7617 188.073 20.918C188.32 21.0612 188.561 21.2044 188.795 21.3477H188.776C188.971 21.3737 189.154 21.4323 189.323 21.5234C189.505 21.6016 189.694 21.6536 189.889 21.6797C190.071 21.901 190.306 22.1159 190.592 22.3242C190.892 22.5195 191.178 22.7279 191.452 22.9492C191.738 23.1706 191.979 23.4115 192.174 23.6719C192.383 23.9193 192.487 24.2057 192.487 24.5312C192.487 24.5833 192.48 24.6354 192.467 24.6875C192.467 24.7396 192.461 24.7982 192.448 24.8633L192.526 24.7656C192.578 24.8047 192.624 24.8698 192.663 24.9609C192.715 25.0521 192.76 25.1562 192.799 25.2734C192.838 25.3776 192.871 25.4883 192.897 25.6055C192.923 25.7096 192.943 25.7943 192.956 25.8594C193.06 26.0286 193.196 26.1654 193.366 26.2695C193.548 26.3737 193.691 26.5169 193.795 26.6992C193.665 26.8294 193.6 26.9987 193.6 27.207C193.6 27.4284 193.646 27.6497 193.737 27.8711C193.828 28.0794 193.874 28.2943 193.874 28.5156C193.874 28.776 193.861 29.0299 193.835 29.2773C193.808 29.5117 193.795 29.7591 193.795 30.0195C193.795 30.2148 193.717 30.3646 193.561 30.4688C193.418 30.5729 193.255 30.6641 193.073 30.7422C192.904 30.8203 192.747 30.8984 192.604 30.9766C192.461 31.0547 192.389 31.1654 192.389 31.3086C192.389 31.4128 192.324 31.4648 192.194 31.4648C192.077 31.4518 191.979 31.4453 191.901 31.4453C191.328 31.4453 190.755 31.3737 190.182 31.2305C189.622 31.0872 189.062 31.0156 188.502 31.0156C187.891 31.0156 187.285 31.0612 186.686 31.1523C186.087 31.2305 185.482 31.2695 184.87 31.2695C184.414 31.2695 183.958 31.2565 183.502 31.2305C183.06 31.2044 182.611 31.1914 182.155 31.1914C182.038 31.1914 181.816 31.2174 181.491 31.2695C181.165 31.3086 180.82 31.3672 180.456 31.4453C180.104 31.5104 179.766 31.5951 179.44 31.6992C179.114 31.7904 178.887 31.8815 178.756 31.9727C178.743 32.0378 178.737 32.1289 178.737 32.2461C178.737 32.8581 178.913 33.4896 179.264 34.1406C179.629 34.7917 180.104 35.3841 180.69 35.918C181.276 36.4518 181.933 36.8945 182.663 37.2461C183.392 37.5977 184.127 37.7734 184.87 37.7734C185.299 37.7734 185.723 37.793 186.139 37.832C186.569 37.8581 186.986 37.9492 187.389 38.1055C187.741 37.9362 188.06 37.7409 188.346 37.5195C188.646 37.2982 188.932 37.0638 189.206 36.8164C189.479 36.569 189.746 36.3151 190.006 36.0547C190.267 35.7943 190.534 35.5339 190.807 35.2734C190.859 35.2214 190.983 35.1758 191.178 35.1367C191.387 35.0846 191.608 35.0456 191.842 35.0195C192.077 34.9805 192.298 34.9544 192.506 34.9414C192.728 34.9154 192.877 34.9023 192.956 34.9023C193.255 34.9023 193.535 34.9479 193.795 35.0391C193.874 35.3385 193.913 35.6315 193.913 35.918ZM190.983 27.9883C190.983 27.793 190.95 27.6042 190.885 27.4219C190.82 27.2396 190.768 27.0508 190.729 26.8555C190.664 26.4909 190.631 26.1393 190.631 25.8008C190.631 25.4492 190.579 25.0977 190.475 24.7461H190.456C190.456 24.8242 190.43 24.9023 190.377 24.9805C190.325 25.0456 190.254 25.0781 190.163 25.0781C190.006 25.0781 189.857 25.0391 189.713 24.9609C189.57 24.8828 189.446 24.7852 189.342 24.668C188.848 24.4466 188.398 24.2383 187.995 24.043C187.604 23.8477 187.207 23.6784 186.803 23.5352C186.413 23.3789 185.989 23.2617 185.534 23.1836C185.091 23.0924 184.577 23.0469 183.991 23.0469C183.939 23.0469 183.887 23.0534 183.835 23.0664C183.795 23.0664 183.756 23.0859 183.717 23.125L183.815 23.3398L183.659 23.3789C183.307 23.444 183.014 23.5091 182.78 23.5742C182.558 23.6263 182.357 23.7044 182.174 23.8086C181.992 23.9128 181.81 24.043 181.627 24.1992C181.458 24.3424 181.237 24.5312 180.963 24.7656C180.833 24.8828 180.69 24.974 180.534 25.0391C180.391 25.0911 180.241 25.1432 180.085 25.1953C179.941 25.2344 179.798 25.2799 179.655 25.332C179.525 25.3841 179.414 25.4688 179.323 25.5859C179.232 25.9115 179.095 26.2305 178.913 26.543C178.743 26.8424 178.659 27.1615 178.659 27.5C178.659 27.6953 178.737 27.8711 178.893 28.0273C179.062 28.1706 179.271 28.2943 179.518 28.3984C179.779 28.5026 180.058 28.5938 180.358 28.6719C180.67 28.75 180.976 28.8086 181.276 28.8477C181.575 28.8867 181.849 28.9193 182.096 28.9453C182.357 28.9583 182.558 28.9648 182.702 28.9648C183.196 28.9648 183.685 28.9193 184.167 28.8281C184.648 28.724 185.137 28.6719 185.631 28.6719C186.139 28.6719 186.647 28.6979 187.155 28.75C187.663 28.7891 188.17 28.8086 188.678 28.8086C188.808 28.8086 189.004 28.8021 189.264 28.7891C189.525 28.776 189.779 28.7435 190.026 28.6914C190.286 28.6263 190.508 28.5417 190.69 28.4375C190.885 28.3203 190.983 28.1706 190.983 27.9883Z" fill="black"/>
<path d="M218.249 25.7422C218.249 26.0026 218.196 26.224 218.092 26.4062C217.988 26.5885 217.871 26.7643 217.741 26.9336C217.624 27.0898 217.5 27.2526 217.37 27.4219C217.252 27.5911 217.174 27.793 217.135 28.0273C217.018 27.9753 216.894 27.9427 216.764 27.9297C216.647 27.9167 216.523 27.9102 216.393 27.9102C216.081 27.9102 215.768 27.9362 215.456 27.9883C215.156 28.0273 214.857 28.0469 214.557 28.0469C214.206 28.0469 213.913 27.9427 213.678 27.7344C213.457 27.513 213.275 27.2461 213.131 26.9336C213.001 26.6211 212.91 26.2891 212.858 25.9375C212.806 25.5729 212.78 25.2474 212.78 24.9609C212.78 24.5964 212.838 24.2253 212.956 23.8477C212.851 23.8086 212.76 23.7891 212.682 23.7891C212.513 23.7891 212.389 23.8411 212.311 23.9453C212.246 24.0495 212.148 24.1016 212.018 24.1016C211.901 24.1016 211.797 24.0625 211.706 23.9844C211.614 23.8932 211.504 23.8477 211.374 23.8477C211.178 23.8477 210.931 23.9128 210.631 24.043C210.345 24.1602 210.065 24.3164 209.792 24.5117C209.518 24.707 209.277 24.9219 209.069 25.1562C208.874 25.3776 208.776 25.5924 208.776 25.8008C208.502 25.8268 208.242 25.9049 207.995 26.0352C207.76 26.1523 207.532 26.2826 207.311 26.4258C207.142 26.5299 206.999 26.6927 206.881 26.9141C206.764 27.1354 206.654 27.3763 206.549 27.6367C206.458 27.8841 206.361 28.138 206.256 28.3984C206.165 28.6589 206.055 28.8737 205.924 29.043C205.703 29.3294 205.508 29.6224 205.338 29.9219C205.182 30.2083 205.104 30.5339 205.104 30.8984C205.104 31.3542 205.176 31.8164 205.319 32.2852C205.462 32.7539 205.534 33.2292 205.534 33.7109C205.534 34.0234 205.508 34.3359 205.456 34.6484C205.417 34.9609 205.397 35.2669 205.397 35.5664C205.397 35.931 205.462 36.224 205.592 36.4453C205.723 36.6667 205.898 36.8424 206.12 36.9727C206.341 37.0898 206.595 37.168 206.881 37.207C207.168 37.2461 207.461 37.2656 207.76 37.2656C208.086 37.2656 208.398 37.2591 208.698 37.2461C209.01 37.2201 209.297 37.207 209.557 37.207C209.648 37.3112 209.7 37.4089 209.713 37.5C209.726 37.5911 209.72 37.6888 209.694 37.793C209.681 37.8841 209.655 37.9818 209.616 38.0859C209.59 38.1771 209.577 38.2878 209.577 38.418C209.577 38.4701 209.59 38.5352 209.616 38.6133C209.811 38.6133 209.98 38.5677 210.124 38.4766C210.267 38.3854 210.371 38.2422 210.436 38.0469C210.527 38.0729 210.605 38.112 210.67 38.1641C210.749 38.2161 210.788 38.2943 210.788 38.3984C210.788 38.4766 210.768 38.5547 210.729 38.6328C210.69 38.6979 210.644 38.763 210.592 38.8281C210.54 38.8932 210.495 38.9648 210.456 39.043C210.417 39.1081 210.397 39.1862 210.397 39.2773C210.397 39.3294 210.404 39.388 210.417 39.4531C210.43 39.5052 210.449 39.5508 210.475 39.5898C210.41 39.694 210.319 39.7656 210.202 39.8047C210.085 39.8438 209.967 39.8633 209.85 39.8633C209.642 39.8633 209.466 39.8307 209.323 39.7656C209.193 39.7005 209.069 39.6289 208.952 39.5508C208.848 39.4727 208.75 39.401 208.659 39.3359C208.568 39.2708 208.457 39.2383 208.327 39.2383C208.275 39.2383 208.196 39.2513 208.092 39.2773C207.988 39.3034 207.884 39.3359 207.78 39.375C207.676 39.4141 207.585 39.4661 207.506 39.5312C207.428 39.5833 207.389 39.6354 207.389 39.6875C207.389 39.7917 207.422 39.8828 207.487 39.9609C207.565 40.0391 207.604 40.1302 207.604 40.2344C207.604 40.3255 207.571 40.3971 207.506 40.4492C207.441 40.5013 207.363 40.5339 207.272 40.5469C207.181 40.5729 207.083 40.5859 206.979 40.5859C206.888 40.599 206.81 40.6055 206.745 40.6055C206.237 40.6055 205.729 40.5469 205.221 40.4297C204.726 40.3255 204.225 40.2734 203.717 40.2734C203.483 40.2734 203.249 40.3255 203.014 40.4297C202.78 40.5339 202.532 40.5859 202.272 40.5859C202.129 40.5859 202.018 40.5534 201.94 40.4883C201.875 40.4362 201.816 40.3711 201.764 40.293C201.712 40.2148 201.654 40.1432 201.588 40.0781C201.523 40.026 201.426 40 201.295 40C201.048 40 200.801 40.026 200.553 40.0781C200.319 40.1302 200.078 40.1823 199.831 40.2344C199.596 40.2995 199.355 40.3516 199.108 40.3906C198.874 40.4427 198.633 40.4688 198.385 40.4688C198.255 40.4688 198.099 40.4492 197.917 40.4102C197.734 40.3841 197.558 40.332 197.389 40.2539C197.22 40.1758 197.077 40.0781 196.96 39.9609C196.842 39.8438 196.784 39.7005 196.784 39.5312C196.784 39.4271 196.842 39.2904 196.96 39.1211C197.09 38.9518 197.233 38.7891 197.389 38.6328C197.545 38.4635 197.702 38.3203 197.858 38.2031C198.014 38.0859 198.131 38.0273 198.21 38.0273C198.418 38.0273 198.62 38.0339 198.815 38.0469C199.023 38.0599 199.238 38.0664 199.46 38.0664C199.811 38.0664 200.163 38.0143 200.514 37.9102C200.879 37.793 201.204 37.6302 201.491 37.4219C201.79 37.2135 202.031 36.9531 202.213 36.6406C202.396 36.3281 202.487 35.9766 202.487 35.5859C202.487 35.4167 202.474 35.2539 202.448 35.0977C202.422 34.9284 202.409 34.7591 202.409 34.5898C202.409 34.2513 202.448 33.9128 202.526 33.5742C202.604 33.2357 202.643 32.8971 202.643 32.5586C202.643 32.1029 202.591 31.6406 202.487 31.1719C202.396 30.6901 202.35 30.2083 202.35 29.7266C202.35 29.2969 202.357 28.8737 202.37 28.457C202.396 28.0273 202.409 27.5977 202.409 27.168C202.409 26.9727 202.402 26.6862 202.389 26.3086C202.376 25.931 202.331 25.5534 202.252 25.1758C202.187 24.7982 202.077 24.4661 201.92 24.1797C201.777 23.8932 201.575 23.75 201.315 23.75C201.029 23.75 200.742 23.7826 200.456 23.8477C200.169 23.9128 199.876 23.9453 199.577 23.9453C199.355 23.9453 199.095 23.9323 198.795 23.9062C198.496 23.8672 198.21 23.8021 197.936 23.7109C197.663 23.6068 197.428 23.4635 197.233 23.2812C197.038 23.099 196.94 22.8581 196.94 22.5586C196.94 22.2331 196.986 21.9727 197.077 21.7773C197.168 21.569 197.285 21.4128 197.428 21.3086C197.585 21.2044 197.76 21.1328 197.956 21.0938C198.164 21.0547 198.385 21.0352 198.62 21.0352C198.828 21.0352 199.043 21.0417 199.264 21.0547C199.486 21.0677 199.7 21.0742 199.909 21.0742C200.325 21.0742 200.736 21.0547 201.139 21.0156C201.556 20.9635 201.973 20.9375 202.389 20.9375C202.676 20.9375 202.962 20.9505 203.249 20.9766C203.535 21.0026 203.815 21.0612 204.088 21.1523C204.336 21.2305 204.518 21.3802 204.635 21.6016C204.752 21.8099 204.857 22.0247 204.948 22.2461C205.052 22.4674 205.169 22.6693 205.299 22.8516C205.43 23.0208 205.638 23.1055 205.924 23.1055C206.055 23.1055 206.172 23.0729 206.276 23.0078C206.393 22.9297 206.504 22.8451 206.608 22.7539C206.712 22.6628 206.816 22.5781 206.92 22.5C207.025 22.4219 207.148 22.3698 207.292 22.3438C207.578 22.3047 207.838 22.2135 208.073 22.0703C208.32 21.9271 208.561 21.7839 208.795 21.6406C209.03 21.4974 209.264 21.3672 209.499 21.25C209.746 21.1328 210.013 21.0742 210.299 21.0742C210.469 21.0742 210.677 21.0547 210.924 21.0156C211.185 20.9766 211.439 20.9245 211.686 20.8594C211.946 20.7812 212.187 20.6901 212.409 20.5859C212.643 20.4818 212.825 20.3646 212.956 20.2344C213.307 20.2604 213.717 20.3451 214.186 20.4883C214.668 20.6315 215.124 20.8268 215.553 21.0742C215.996 21.3086 216.38 21.5885 216.706 21.9141C217.031 22.2396 217.22 22.6042 217.272 23.0078C217.311 23.2552 217.383 23.4896 217.487 23.7109C217.591 23.9323 217.695 24.1536 217.799 24.375C217.917 24.5833 218.021 24.8047 218.112 25.0391C218.203 25.2604 218.249 25.4948 218.249 25.7422Z" fill="black"/>
<path d="M84.4935 61V43.975C84.4935 43.825 84.5352 43.7083 84.6185 43.625C84.7185 43.5417 84.9018 43.5 85.1685 43.5H87.6435C88.1435 43.5 88.6435 43.5583 89.1435 43.675C89.6435 43.775 90.0935 43.9667 90.4935 44.25C90.8935 44.5167 91.2185 44.9 91.4685 45.4C91.7185 45.9 91.8435 46.5583 91.8435 47.375C91.8435 48.2917 91.7185 49.0333 91.4685 49.6C91.2185 50.1667 90.9102 50.6 90.5435 50.9C90.1768 51.1833 89.8102 51.35 89.4435 51.4C89.7268 51.4167 90.0352 51.4833 90.3685 51.6C90.7185 51.7 91.0435 51.8833 91.3435 52.15C91.6602 52.4 91.9102 52.7583 92.0935 53.225C92.2935 53.6917 92.3935 54.3 92.3935 55.05C92.3935 55.8833 92.3102 56.625 92.1435 57.275C91.9935 57.925 91.7685 58.4833 91.4685 58.95C91.1852 59.4167 90.8435 59.8083 90.4435 60.125C90.0435 60.425 89.6102 60.65 89.1435 60.8C88.6768 60.9333 88.1768 61 87.6435 61H84.4935ZM86.5685 59.225H87.6935C88.0102 59.225 88.3018 59.15 88.5685 59C88.8518 58.85 89.1018 58.6167 89.3185 58.3C89.5352 57.9667 89.7018 57.55 89.8185 57.05C89.9518 56.55 90.0185 55.9417 90.0185 55.225C90.0185 54.575 89.9602 54.0667 89.8435 53.7C89.7435 53.3167 89.5852 53.0333 89.3685 52.85C89.1685 52.65 88.9268 52.525 88.6435 52.475C88.3602 52.425 88.0518 52.4 87.7185 52.4H86.5685V59.225ZM86.5685 50.65H87.7935C88.1435 50.65 88.4518 50.55 88.7185 50.35C89.0018 50.15 89.2185 49.8333 89.3685 49.4C89.5352 48.9667 89.6185 48.4167 89.6185 47.75C89.6185 47.0667 89.5268 46.55 89.3435 46.2C89.1768 45.85 88.9518 45.6167 88.6685 45.5C88.3852 45.3667 88.0852 45.3 87.7685 45.3H86.5685V50.65Z" fill="black"/>
<path d="M97.1179 61.25C96.6513 61.25 96.2012 61.2083 95.7679 61.125C95.3512 61.0583 94.9762 60.9 94.6429 60.65C94.3096 60.3833 94.0429 60 93.8429 59.5C93.6429 59 93.5429 58.3167 93.5429 57.45C93.5429 56.5833 93.6346 55.8833 93.8179 55.35C94.0013 54.8 94.2513 54.3833 94.5679 54.1C94.8846 53.8 95.2429 53.6 95.6429 53.5C96.0429 53.4 96.4513 53.35 96.8679 53.35C97.1346 53.35 97.4429 53.375 97.7929 53.425C98.1596 53.475 98.4679 53.5583 98.7179 53.675C98.7179 53.675 98.7179 53.5583 98.7179 53.325C98.7179 53.0917 98.7179 52.825 98.7179 52.525C98.7179 52.2083 98.7179 51.9333 98.7179 51.7C98.7179 51.3 98.6512 51 98.5179 50.8C98.4012 50.5833 98.2263 50.4333 97.9929 50.35C97.7763 50.25 97.5012 50.2 97.1679 50.2C96.5179 50.2 95.8929 50.2583 95.2929 50.375C94.6929 50.4917 94.2096 50.625 93.8429 50.775C93.7263 50.575 93.6513 50.375 93.6179 50.175C93.5846 49.9583 93.5679 49.7667 93.5679 49.6C93.5679 49.4833 93.5846 49.3583 93.6179 49.225C93.6679 49.0917 93.7429 48.9917 93.8429 48.925C94.0596 48.7917 94.5096 48.65 95.1929 48.5C95.8763 48.3333 96.6929 48.25 97.6429 48.25C98.7262 48.25 99.5096 48.475 99.9929 48.925C100.493 49.375 100.743 50.1667 100.743 51.3V52.625C100.743 53.575 100.735 54.5333 100.718 55.5C100.718 56.45 100.71 57.35 100.693 58.2C100.676 59.0333 100.643 59.7667 100.593 60.4C100.26 60.6 99.8013 60.7917 99.2179 60.975C98.6346 61.1583 97.9346 61.25 97.1179 61.25ZM97.3179 59.55C97.5846 59.55 97.8429 59.5083 98.0929 59.425C98.3429 59.3417 98.5179 59.2417 98.6179 59.125C98.6513 58.8583 98.6679 58.4917 98.6679 58.025C98.6846 57.5583 98.6929 57.0667 98.6929 56.55C98.7096 56.0333 98.7179 55.55 98.7179 55.1C98.5513 55.0167 98.3513 54.9583 98.1179 54.925C97.9013 54.8917 97.7096 54.875 97.5429 54.875C97.2762 54.875 97.0262 54.9083 96.7929 54.975C96.5762 55.025 96.3846 55.1417 96.2179 55.325C96.0513 55.4917 95.9179 55.7417 95.8179 56.075C95.7179 56.4083 95.6679 56.85 95.6679 57.4C95.6679 57.85 95.7012 58.2167 95.7679 58.5C95.8512 58.7833 95.9679 59.0083 96.1179 59.175C96.2679 59.325 96.4429 59.425 96.6429 59.475C96.8429 59.525 97.0679 59.55 97.3179 59.55Z" fill="black"/>
<path d="M102.781 61V49.375C103.264 49.025 103.797 48.75 104.381 48.55C104.964 48.35 105.564 48.25 106.181 48.25C106.831 48.25 107.281 48.3417 107.531 48.525C107.797 48.6917 107.931 48.95 107.931 49.3C107.931 49.4333 107.914 49.6167 107.881 49.85C107.847 50.0667 107.789 50.2833 107.706 50.5C107.522 50.4 107.331 50.325 107.131 50.275C106.931 50.225 106.722 50.2 106.506 50.2C106.222 50.2 105.931 50.25 105.631 50.35C105.347 50.4333 105.089 50.5667 104.856 50.75L104.831 60.6C104.831 60.7333 104.797 60.825 104.731 60.875C104.681 60.925 104.514 60.9583 104.231 60.975C103.947 60.9917 103.464 61 102.781 61Z" fill="black"/>
<path d="M112.323 61.25C111.657 61.25 111.073 61.1833 110.573 61.05C110.09 60.9167 109.698 60.7333 109.398 60.5V43.575C109.398 43.2583 109.448 43.0333 109.548 42.9C109.665 42.7667 109.865 42.6917 110.148 42.675C110.448 42.6417 110.873 42.625 111.423 42.625V49.125C111.773 48.8583 112.157 48.65 112.573 48.5C113.007 48.3333 113.515 48.25 114.098 48.25C114.765 48.25 115.323 48.4083 115.773 48.725C116.223 49.0417 116.565 49.5583 116.798 50.275C117.032 50.9917 117.148 51.9583 117.148 53.175C117.148 54.6083 117.048 55.8167 116.848 56.8C116.665 57.7833 116.398 58.5667 116.048 59.15C115.715 59.7333 115.34 60.1833 114.923 60.5C114.507 60.8 114.073 61 113.623 61.1C113.173 61.2 112.74 61.25 112.323 61.25ZM112.598 59.45C112.815 59.45 113.057 59.3833 113.323 59.25C113.59 59.1167 113.84 58.85 114.073 58.45C114.307 58.05 114.498 57.4667 114.648 56.7C114.815 55.9167 114.898 54.8917 114.898 53.625C114.898 52.725 114.832 52.0167 114.698 51.5C114.565 50.9833 114.373 50.6167 114.123 50.4C113.89 50.1833 113.573 50.075 113.173 50.075C112.857 50.075 112.548 50.1333 112.248 50.25C111.965 50.35 111.69 50.525 111.423 50.775V59.125C111.54 59.2083 111.69 59.2833 111.873 59.35C112.057 59.4167 112.298 59.45 112.598 59.45Z" fill="black"/>
<path d="M122.567 61.25C122.001 61.25 121.467 61.1667 120.967 61C120.484 60.85 120.059 60.5667 119.692 60.15C119.342 59.7333 119.067 59.1417 118.867 58.375C118.684 57.6083 118.592 56.6167 118.592 55.4C118.592 53.8333 118.717 52.575 118.967 51.625C119.217 50.675 119.551 49.9583 119.967 49.475C120.384 48.9917 120.859 48.6667 121.392 48.5C121.926 48.3333 122.467 48.25 123.017 48.25C124.067 48.25 124.859 48.5833 125.392 49.25C125.926 49.9167 126.192 50.925 126.192 52.275C126.192 52.825 126.167 53.3917 126.117 53.975C126.084 54.5583 126.009 55.075 125.892 55.525C125.326 55.6417 124.692 55.725 123.992 55.775C123.292 55.825 122.626 55.8667 121.992 55.9C121.359 55.9167 120.834 55.925 120.417 55.925C120.017 55.925 119.817 55.925 119.817 55.925L119.842 54.275C119.842 54.275 120.001 54.2833 120.317 54.3C120.634 54.3 121.017 54.3 121.467 54.3C121.934 54.2833 122.401 54.2583 122.867 54.225C123.351 54.175 123.759 54.1 124.092 54C124.142 53.7667 124.176 53.5167 124.192 53.25C124.209 52.9833 124.217 52.7333 124.217 52.5C124.201 51.6 124.092 50.9667 123.892 50.6C123.709 50.2167 123.342 50.025 122.792 50.025C122.509 50.025 122.234 50.1083 121.967 50.275C121.717 50.425 121.492 50.7 121.292 51.1C121.092 51.4833 120.934 52.0167 120.817 52.7C120.717 53.3833 120.667 54.2583 120.667 55.325C120.667 56.1083 120.709 56.7583 120.792 57.275C120.892 57.7917 121.034 58.1917 121.217 58.475C121.417 58.7583 121.659 58.9667 121.942 59.1C122.242 59.2167 122.601 59.275 123.017 59.275C123.517 59.275 124.009 59.2083 124.492 59.075C124.992 58.9417 125.442 58.75 125.842 58.5C125.926 58.7 125.976 58.9333 125.992 59.2C126.026 59.45 126.042 59.675 126.042 59.875C126.042 60.125 125.884 60.3583 125.567 60.575C125.251 60.7917 124.826 60.9583 124.292 61.075C123.776 61.1917 123.201 61.25 122.567 61.25Z" fill="black"/>
<path d="M131.151 61.25C130.684 61.25 130.234 61.2083 129.801 61.125C129.384 61.0583 129.009 60.9 128.676 60.65C128.343 60.3833 128.076 60 127.876 59.5C127.676 59 127.576 58.3167 127.576 57.45C127.576 56.5833 127.668 55.8833 127.851 55.35C128.034 54.8 128.284 54.3833 128.601 54.1C128.918 53.8 129.276 53.6 129.676 53.5C130.076 53.4 130.484 53.35 130.901 53.35C131.168 53.35 131.476 53.375 131.826 53.425C132.193 53.475 132.501 53.5583 132.751 53.675C132.751 53.675 132.751 53.5583 132.751 53.325C132.751 53.0917 132.751 52.825 132.751 52.525C132.751 52.2083 132.751 51.9333 132.751 51.7C132.751 51.3 132.684 51 132.551 50.8C132.434 50.5833 132.259 50.4333 132.026 50.35C131.809 50.25 131.534 50.2 131.201 50.2C130.551 50.2 129.926 50.2583 129.326 50.375C128.726 50.4917 128.243 50.625 127.876 50.775C127.759 50.575 127.684 50.375 127.651 50.175C127.618 49.9583 127.601 49.7667 127.601 49.6C127.601 49.4833 127.618 49.3583 127.651 49.225C127.701 49.0917 127.776 48.9917 127.876 48.925C128.093 48.7917 128.543 48.65 129.226 48.5C129.909 48.3333 130.726 48.25 131.676 48.25C132.759 48.25 133.543 48.475 134.026 48.925C134.526 49.375 134.776 50.1667 134.776 51.3V52.625C134.776 53.575 134.768 54.5333 134.751 55.5C134.751 56.45 134.743 57.35 134.726 58.2C134.709 59.0333 134.676 59.7667 134.626 60.4C134.293 60.6 133.834 60.7917 133.251 60.975C132.668 61.1583 131.968 61.25 131.151 61.25ZM131.351 59.55C131.618 59.55 131.876 59.5083 132.126 59.425C132.376 59.3417 132.551 59.2417 132.651 59.125C132.684 58.8583 132.701 58.4917 132.701 58.025C132.718 57.5583 132.726 57.0667 132.726 56.55C132.743 56.0333 132.751 55.55 132.751 55.1C132.584 55.0167 132.384 54.9583 132.151 54.925C131.934 54.8917 131.743 54.875 131.576 54.875C131.309 54.875 131.059 54.9083 130.826 54.975C130.609 55.025 130.418 55.1417 130.251 55.325C130.084 55.4917 129.951 55.7417 129.851 56.075C129.751 56.4083 129.701 56.85 129.701 57.4C129.701 57.85 129.734 58.2167 129.801 58.5C129.884 58.7833 130.001 59.0083 130.151 59.175C130.301 59.325 130.476 59.425 130.676 59.475C130.876 59.525 131.101 59.55 131.351 59.55Z" fill="black"/>
<path d="M136.814 61V49.375C137.297 49.025 137.831 48.75 138.414 48.55C138.997 48.35 139.597 48.25 140.214 48.25C140.864 48.25 141.314 48.3417 141.564 48.525C141.831 48.6917 141.964 48.95 141.964 49.3C141.964 49.4333 141.947 49.6167 141.914 49.85C141.881 50.0667 141.822 50.2833 141.739 50.5C141.556 50.4 141.364 50.325 141.164 50.275C140.964 50.225 140.756 50.2 140.539 50.2C140.256 50.2 139.964 50.25 139.664 50.35C139.381 50.4333 139.122 50.5667 138.889 50.75L138.864 60.6C138.864 60.7333 138.831 60.825 138.764 60.875C138.714 60.925 138.547 60.9583 138.264 60.975C137.981 60.9917 137.497 61 136.814 61Z" fill="black"/>
<path d="M143.406 61V49.425C143.406 49.1083 143.465 48.8917 143.581 48.775C143.698 48.6417 143.906 48.5667 144.206 48.55C144.506 48.5167 144.931 48.5 145.481 48.5V60.6C145.481 60.7333 145.448 60.825 145.381 60.875C145.331 60.925 145.165 60.9583 144.881 60.975C144.598 60.9917 144.106 61 143.406 61ZM144.381 46.775C144.065 46.7583 143.815 46.6417 143.631 46.425C143.448 46.1917 143.356 45.7833 143.356 45.2C143.373 44.75 143.473 44.3917 143.656 44.125C143.84 43.8417 144.131 43.7 144.531 43.7C144.915 43.7 145.181 43.8083 145.331 44.025C145.481 44.2417 145.548 44.6167 145.531 45.15C145.531 45.65 145.431 46.05 145.231 46.35C145.048 46.6333 144.765 46.775 144.381 46.775Z" fill="black"/>
<path d="M150.927 61.25C150.46 61.25 150.01 61.2083 149.577 61.125C149.16 61.0583 148.785 60.9 148.452 60.65C148.118 60.3833 147.852 60 147.652 59.5C147.452 59 147.352 58.3167 147.352 57.45C147.352 56.5833 147.443 55.8833 147.627 55.35C147.81 54.8 148.06 54.3833 148.377 54.1C148.693 53.8 149.052 53.6 149.452 53.5C149.852 53.4 150.26 53.35 150.677 53.35C150.943 53.35 151.252 53.375 151.602 53.425C151.968 53.475 152.277 53.5583 152.527 53.675C152.527 53.675 152.527 53.5583 152.527 53.325C152.527 53.0917 152.527 52.825 152.527 52.525C152.527 52.2083 152.527 51.9333 152.527 51.7C152.527 51.3 152.46 51 152.327 50.8C152.21 50.5833 152.035 50.4333 151.802 50.35C151.585 50.25 151.31 50.2 150.977 50.2C150.327 50.2 149.702 50.2583 149.102 50.375C148.502 50.4917 148.018 50.625 147.652 50.775C147.535 50.575 147.46 50.375 147.427 50.175C147.393 49.9583 147.377 49.7667 147.377 49.6C147.377 49.4833 147.393 49.3583 147.427 49.225C147.477 49.0917 147.552 48.9917 147.652 48.925C147.868 48.7917 148.318 48.65 149.002 48.5C149.685 48.3333 150.502 48.25 151.452 48.25C152.535 48.25 153.318 48.475 153.802 48.925C154.302 49.375 154.552 50.1667 154.552 51.3V52.625C154.552 53.575 154.543 54.5333 154.527 55.5C154.527 56.45 154.518 57.35 154.502 58.2C154.485 59.0333 154.452 59.7667 154.402 60.4C154.068 60.6 153.61 60.7917 153.027 60.975C152.443 61.1583 151.743 61.25 150.927 61.25ZM151.127 59.55C151.393 59.55 151.652 59.5083 151.902 59.425C152.152 59.3417 152.327 59.2417 152.427 59.125C152.46 58.8583 152.477 58.4917 152.477 58.025C152.493 57.5583 152.502 57.0667 152.502 56.55C152.518 56.0333 152.527 55.55 152.527 55.1C152.36 55.0167 152.16 54.9583 151.927 54.925C151.71 54.8917 151.518 54.875 151.352 54.875C151.085 54.875 150.835 54.9083 150.602 54.975C150.385 55.025 150.193 55.1417 150.027 55.325C149.86 55.4917 149.727 55.7417 149.627 56.075C149.527 56.4083 149.477 56.85 149.477 57.4C149.477 57.85 149.51 58.2167 149.577 58.5C149.66 58.7833 149.777 59.0083 149.927 59.175C150.077 59.325 150.252 59.425 150.452 59.475C150.652 59.525 150.877 59.55 151.127 59.55Z" fill="black"/>
<path d="M164.269 61.175C163.953 61.175 163.694 61.0417 163.494 60.775C163.311 60.4917 163.169 60.1417 163.069 59.725C162.903 59.0417 162.703 58.1917 162.469 57.175C162.236 56.1417 161.986 55.0417 161.719 53.875C161.469 52.6917 161.211 51.525 160.944 50.375C160.694 49.225 160.469 48.175 160.269 47.225C160.069 46.275 159.903 45.5167 159.769 44.95C159.653 44.3833 159.594 44.1 159.594 44.1C159.544 43.8833 159.536 43.7333 159.569 43.65C159.603 43.55 159.761 43.5 160.044 43.5H161.694L163.769 53.175C163.919 53.9083 164.053 54.65 164.169 55.4C164.286 56.1333 164.394 56.8333 164.494 57.5C164.594 58.15 164.686 58.7417 164.769 59.275C164.836 58.7417 164.911 58.15 164.994 57.5C165.094 56.8333 165.203 56.1333 165.319 55.4C165.436 54.65 165.553 53.9083 165.669 53.175L167.544 44.1C167.578 43.9 167.619 43.75 167.669 43.65C167.736 43.55 167.869 43.5 168.069 43.5H169.819L165.969 61.075C165.703 61.1083 165.444 61.1333 165.194 61.15C164.961 61.1667 164.653 61.175 164.269 61.175Z" fill="black"/>
<path d="M171.068 61V49.425C171.068 49.1083 171.126 48.8917 171.243 48.775C171.359 48.6417 171.568 48.5667 171.868 48.55C172.168 48.5167 172.593 48.5 173.143 48.5V60.6C173.143 60.7333 173.109 60.825 173.043 60.875C172.993 60.925 172.826 60.9583 172.543 60.975C172.259 60.9917 171.768 61 171.068 61ZM172.043 46.775C171.726 46.7583 171.476 46.6417 171.293 46.425C171.109 46.1917 171.018 45.7833 171.018 45.2C171.034 44.75 171.134 44.3917 171.318 44.125C171.501 43.8417 171.793 43.7 172.193 43.7C172.576 43.7 172.843 43.8083 172.993 44.025C173.143 44.2417 173.209 44.6167 173.193 45.15C173.193 45.65 173.093 46.05 172.893 46.35C172.709 46.6333 172.426 46.775 172.043 46.775Z" fill="black"/>
<path d="M175.73 61V49.1C176.063 48.95 176.455 48.8167 176.905 48.7C177.355 48.5667 177.822 48.4583 178.305 48.375C178.788 48.2917 179.255 48.25 179.705 48.25C180.572 48.25 181.263 48.3667 181.78 48.6C182.297 48.8167 182.663 49.1667 182.88 49.65C183.097 50.1333 183.205 50.7833 183.205 51.6V60.6C183.205 60.7333 183.172 60.825 183.105 60.875C183.038 60.925 182.863 60.9583 182.58 60.975C182.297 60.9917 181.805 61 181.105 61V52.2C181.105 51.4167 181.013 50.8583 180.83 50.525C180.647 50.1917 180.247 50.025 179.63 50.025C179.347 50.025 179.03 50.0583 178.68 50.125C178.33 50.1917 178.022 50.3083 177.755 50.475V60.6C177.755 60.7333 177.722 60.825 177.655 60.875C177.605 60.925 177.438 60.9583 177.155 60.975C176.872 60.9917 176.397 61 175.73 61Z" fill="black"/>
<path d="M188.701 61.25C188.001 61.25 187.476 61.1 187.126 60.8C186.793 60.4833 186.576 60.05 186.476 59.5C186.376 58.9333 186.326 58.275 186.326 57.525V50.25H184.626C184.626 49.7167 184.626 49.3333 184.626 49.1C184.643 48.85 184.684 48.6917 184.751 48.625C184.818 48.5417 184.918 48.5 185.051 48.5H186.326V44.7C186.326 44.45 186.376 44.2833 186.476 44.2C186.593 44.1 186.793 44.0417 187.076 44.025C187.376 44.0083 187.801 44 188.351 44V48.5H190.901C190.901 49.0167 190.893 49.4 190.876 49.65C190.876 49.9 190.843 50.0667 190.776 50.15C190.726 50.2167 190.634 50.25 190.501 50.25H188.351V57.525C188.351 57.875 188.359 58.2083 188.376 58.525C188.409 58.825 188.484 59.0667 188.601 59.25C188.734 59.4167 188.951 59.5 189.251 59.5C189.534 59.5 189.784 59.475 190.001 59.425C190.218 59.3583 190.451 59.2583 190.701 59.125C190.734 59.2583 190.768 59.4083 190.801 59.575C190.834 59.7417 190.851 59.9333 190.851 60.15C190.851 60.45 190.734 60.6833 190.501 60.85C190.284 61 190.009 61.1 189.676 61.15C189.359 61.2167 189.034 61.25 188.701 61.25Z" fill="black"/>
<path d="M195.555 61.25C195.089 61.25 194.639 61.2083 194.205 61.125C193.789 61.0583 193.414 60.9 193.08 60.65C192.747 60.3833 192.48 60 192.28 59.5C192.08 59 191.98 58.3167 191.98 57.45C191.98 56.5833 192.072 55.8833 192.255 55.35C192.439 54.8 192.689 54.3833 193.005 54.1C193.322 53.8 193.68 53.6 194.08 53.5C194.48 53.4 194.889 53.35 195.305 53.35C195.572 53.35 195.88 53.375 196.23 53.425C196.597 53.475 196.905 53.5583 197.155 53.675C197.155 53.675 197.155 53.5583 197.155 53.325C197.155 53.0917 197.155 52.825 197.155 52.525C197.155 52.2083 197.155 51.9333 197.155 51.7C197.155 51.3 197.089 51 196.955 50.8C196.839 50.5833 196.664 50.4333 196.43 50.35C196.214 50.25 195.939 50.2 195.605 50.2C194.955 50.2 194.33 50.2583 193.73 50.375C193.13 50.4917 192.647 50.625 192.28 50.775C192.164 50.575 192.089 50.375 192.055 50.175C192.022 49.9583 192.005 49.7667 192.005 49.6C192.005 49.4833 192.022 49.3583 192.055 49.225C192.105 49.0917 192.18 48.9917 192.28 48.925C192.497 48.7917 192.947 48.65 193.63 48.5C194.314 48.3333 195.13 48.25 196.08 48.25C197.164 48.25 197.947 48.475 198.43 48.925C198.93 49.375 199.18 50.1667 199.18 51.3V52.625C199.18 53.575 199.172 54.5333 199.155 55.5C199.155 56.45 199.147 57.35 199.13 58.2C199.114 59.0333 199.08 59.7667 199.03 60.4C198.697 60.6 198.239 60.7917 197.655 60.975C197.072 61.1583 196.372 61.25 195.555 61.25ZM195.755 59.55C196.022 59.55 196.28 59.5083 196.53 59.425C196.78 59.3417 196.955 59.2417 197.055 59.125C197.089 58.8583 197.105 58.4917 197.105 58.025C197.122 57.5583 197.13 57.0667 197.13 56.55C197.147 56.0333 197.155 55.55 197.155 55.1C196.989 55.0167 196.789 54.9583 196.555 54.925C196.339 54.8917 196.147 54.875 195.98 54.875C195.714 54.875 195.464 54.9083 195.23 54.975C195.014 55.025 194.822 55.1417 194.655 55.325C194.489 55.4917 194.355 55.7417 194.255 56.075C194.155 56.4083 194.105 56.85 194.105 57.4C194.105 57.85 194.139 58.2167 194.205 58.5C194.289 58.7833 194.405 59.0083 194.555 59.175C194.705 59.325 194.88 59.425 195.08 59.475C195.28 59.525 195.505 59.55 195.755 59.55Z" fill="black"/>
<path d="M204.668 65.925C203.552 65.925 202.702 65.7833 202.118 65.5C201.535 65.2167 201.143 64.8667 200.943 64.45C200.743 64.0333 200.643 63.6167 200.643 63.2C200.643 62.6167 200.81 62.075 201.143 61.575C201.477 61.0917 201.893 60.6667 202.393 60.3C202.91 59.9167 203.452 59.6417 204.018 59.475L204.768 60.075C204.452 60.2083 204.135 60.4167 203.818 60.7C203.502 60.9833 203.243 61.3 203.043 61.65C202.843 62 202.743 62.3583 202.743 62.725C202.743 62.975 202.793 63.2 202.893 63.4C203.01 63.6167 203.218 63.775 203.518 63.875C203.835 63.9917 204.277 64.05 204.843 64.05C205.743 64.05 206.393 63.8333 206.793 63.4C207.193 62.9833 207.393 62.5583 207.393 62.125C207.393 61.7417 207.31 61.4417 207.143 61.225C206.977 61.025 206.685 60.875 206.268 60.775C205.868 60.6583 205.302 60.575 204.568 60.525C203.868 60.4583 203.252 60.3583 202.718 60.225C202.185 60.0917 201.768 59.9083 201.468 59.675C201.168 59.4417 201.018 59.1583 201.018 58.825C201.035 58.5583 201.127 58.2833 201.293 58C201.46 57.7 201.693 57.4 201.993 57.1C202.31 56.7833 202.677 56.4833 203.093 56.2L204.343 56.625C204.243 56.6917 204.102 56.8167 203.918 57C203.735 57.1667 203.568 57.3583 203.418 57.575C203.268 57.775 203.193 57.9667 203.193 58.15C203.193 58.3667 203.477 58.525 204.043 58.625C204.61 58.725 205.31 58.825 206.143 58.925C206.793 59.025 207.368 59.1833 207.868 59.4C208.368 59.6 208.752 59.8917 209.018 60.275C209.302 60.6583 209.443 61.1833 209.443 61.85C209.443 62.5667 209.277 63.2333 208.943 63.85C208.61 64.4833 208.093 64.9833 207.393 65.35C206.693 65.7333 205.785 65.925 204.668 65.925ZM204.968 57.15C203.968 57.15 203.185 56.9583 202.618 56.575C202.052 56.1917 201.652 55.675 201.418 55.025C201.185 54.3583 201.068 53.625 201.068 52.825C201.068 51.725 201.243 50.8417 201.593 50.175C201.943 49.4917 202.435 49 203.068 48.7C203.702 48.4 204.427 48.25 205.243 48.25C205.427 48.25 205.652 48.275 205.918 48.325C206.202 48.375 206.46 48.4417 206.693 48.525L207.118 49.425C207.702 49.6583 208.16 50.05 208.493 50.6C208.843 51.15 209.018 51.875 209.018 52.775C209.018 53.6583 208.877 54.425 208.593 55.075C208.327 55.725 207.893 56.2333 207.293 56.6C206.71 56.9667 205.935 57.15 204.968 57.15ZM205.068 55.6C205.518 55.6 205.877 55.475 206.143 55.225C206.427 54.975 206.635 54.6083 206.768 54.125C206.902 53.625 206.968 53.0167 206.968 52.3C206.968 51.3833 206.818 50.7333 206.518 50.35C206.218 49.95 205.76 49.75 205.143 49.75C204.793 49.75 204.468 49.85 204.168 50.05C203.868 50.2333 203.635 50.55 203.468 51C203.302 51.4333 203.218 52.025 203.218 52.775C203.218 53.3583 203.26 53.8667 203.343 54.3C203.443 54.7167 203.627 55.0417 203.893 55.275C204.16 55.4917 204.552 55.6 205.068 55.6ZM208.968 50.2C208.718 50.2 208.418 50.1583 208.068 50.075C207.718 49.975 207.368 49.875 207.018 49.775C206.668 49.6583 206.377 49.5583 206.143 49.475C205.927 49.3917 205.818 49.35 205.818 49.35L205.593 48.45H209.468C209.518 48.5333 209.56 48.6583 209.593 48.825C209.643 48.975 209.668 49.1667 209.668 49.4C209.668 49.6833 209.602 49.8917 209.468 50.025C209.352 50.1417 209.185 50.2 208.968 50.2Z" fill="black"/>
<path d="M214.389 61.25C213.822 61.25 213.289 61.1667 212.789 61C212.305 60.85 211.88 60.5667 211.514 60.15C211.164 59.7333 210.889 59.1417 210.689 58.375C210.505 57.6083 210.414 56.6167 210.414 55.4C210.414 53.8333 210.539 52.575 210.789 51.625C211.039 50.675 211.372 49.9583 211.789 49.475C212.205 48.9917 212.68 48.6667 213.214 48.5C213.747 48.3333 214.289 48.25 214.839 48.25C215.889 48.25 216.68 48.5833 217.214 49.25C217.747 49.9167 218.014 50.925 218.014 52.275C218.014 52.825 217.989 53.3917 217.939 53.975C217.905 54.5583 217.83 55.075 217.714 55.525C217.147 55.6417 216.514 55.725 215.814 55.775C215.114 55.825 214.447 55.8667 213.814 55.9C213.18 55.9167 212.655 55.925 212.239 55.925C211.839 55.925 211.639 55.925 211.639 55.925L211.664 54.275C211.664 54.275 211.822 54.2833 212.139 54.3C212.455 54.3 212.839 54.3 213.289 54.3C213.755 54.2833 214.222 54.2583 214.689 54.225C215.172 54.175 215.58 54.1 215.914 54C215.964 53.7667 215.997 53.5167 216.014 53.25C216.03 52.9833 216.039 52.7333 216.039 52.5C216.022 51.6 215.914 50.9667 215.714 50.6C215.53 50.2167 215.164 50.025 214.614 50.025C214.33 50.025 214.055 50.1083 213.789 50.275C213.539 50.425 213.314 50.7 213.114 51.1C212.914 51.4833 212.755 52.0167 212.639 52.7C212.539 53.3833 212.489 54.2583 212.489 55.325C212.489 56.1083 212.53 56.7583 212.614 57.275C212.714 57.7917 212.855 58.1917 213.039 58.475C213.239 58.7583 213.48 58.9667 213.764 59.1C214.064 59.2167 214.422 59.275 214.839 59.275C215.339 59.275 215.83 59.2083 216.314 59.075C216.814 58.9417 217.264 58.75 217.664 58.5C217.747 58.7 217.797 58.9333 217.814 59.2C217.847 59.45 217.864 59.675 217.864 59.875C217.864 60.125 217.705 60.3583 217.389 60.575C217.072 60.7917 216.647 60.9583 216.114 61.075C215.597 61.1917 215.022 61.25 214.389 61.25Z" fill="black"/>
</svg>
